<svg xmlns="http://www.w3.org/2000/svg" width="1044.6129846153847" xmlns:xlink="http://www.w3.org/1999/xlink" viewBox="-0.5000399999999985 -324.5 678.99844 325.0" height="500.0"><style>svg {
  color-scheme: light dark;
}
{
  .canvas g, .title g, .axisbar g, .ticktext g, .tickglyph g, .ticklines g, .legendContent g text {
    fill: #0d0d0d;
  }
  .ticklines g, .tickglyph g, .legendBorder g {
    stroke: #0d0d0d;
  }
  .legendBorder g {
    fill: #f0f0f0;
  }
}
@media (prefers-color-scheme:dark) {
  .canvas g, .title g, .axisbar g, .ticktext g, .tickglyph g, .ticklines g, .legendContent g text {
    fill: #f0f0f0;
  }
  .ticklines g, .tickglyph g, .legendBorder g {
    stroke: #f0f0f0;
  }
  .legendBorder g {
    fill: #0d0d0d;
  }
}</style><g class="chart"><g class="edges"><g fill="rgb(0%, 0%, 0%)" stroke="rgb(-51%, 30%, 37%)" stroke-width="1.0" fill-opacity="0.0" stroke-opacity="1.0"><path d="M 261.71,-107.24 C 234.9900,-119.71 198.5900,-136.69 173.91,-148.21 L 173.62,-148.34"/></g><g fill="rgb(0%, 0%, 0%)" stroke="rgb(-51%, 30%, 37%)" stroke-width="1.0" fill-opacity="0.0" stroke-opacity="1.0"><path d="M 142.14,-252.3000 C 134.45,-263.07 124.6,-276.87 116.9000,-287.64 L 116.72,-287.9"/></g><g fill="rgb(0%, 0%, 0%)" stroke="rgb(-51%, 30%, 37%)" stroke-width="1.0" fill-opacity="0.0" stroke-opacity="1.0"><path d="M 185.57,-252.12 C 205.09,-262.8900 230.21,-276.73 249.85,-287.56 L 250.31,-287.81"/></g><g fill="rgb(0%, 0%, 0%)" stroke="rgb(-51%, 30%, 37%)" stroke-width="1.0" fill-opacity="0.0" stroke-opacity="1.0"><path d="M 376.48,-180.1600 C 375.6900,-199.21 372.0100,-230.15 357.5,-252.0000 C 347.61,-266.8900 331.99,-278.84 317.47,-287.6 L 317.13,-287.8000"/></g><g fill="rgb(0%, 0%, 0%)" stroke="rgb(-51%, 30%, 37%)" stroke-width="1.0" fill-opacity="0.0" stroke-opacity="1.0"><path d="M 465.63,-36.124 C 446.95,-47.208 422.75,-61.5610 404.29,-72.516 L 403.8500,-72.774"/></g><g fill="rgb(0%, 0%, 0%)" stroke="rgb(-51%, 30%, 37%)" stroke-width="1.0" fill-opacity="0.0" stroke-opacity="1.0"><path d="M 376.5,-108.3 C 376.5,-119.07 376.5,-132.87 376.5,-143.64 L 376.5,-143.9"/></g><g fill="rgb(0%, 0%, 0%)" stroke="rgb(-51%, 30%, 37%)" stroke-width="1.0" fill-opacity="0.0" stroke-opacity="1.0"><path d="M 349.23,-104.13 C 345.98,-105.5100 342.69,-106.8400 339.5,-108.0000 C 308.87,-119.16 219.46,-142.43 173.89,-154.07 L 173.62,-154.13"/></g><g fill="rgb(0%, 0%, 0%)" stroke="rgb(-51%, 30%, 37%)" stroke-width="1.0" fill-opacity="0.0" stroke-opacity="1.0"><path d="M 196.94,-108.3 C 186.63,-119.07 173.43,-132.87 163.11,-143.64 L 162.87,-143.9"/></g><g fill="rgb(0%, 0%, 0%)" stroke="rgb(-51%, 30%, 37%)" stroke-width="1.0" fill-opacity="0.0" stroke-opacity="1.0"><path d="M 376.5,-36.303 C 376.5,-47.069 376.5,-60.866 376.5,-71.642 L 376.5,-71.896"/></g><g fill="rgb(0%, 0%, 0%)" stroke="rgb(-51%, 30%, 37%)" stroke-width="1.0" fill-opacity="0.0" stroke-opacity="1.0"><path d="M 230.79,-180.12 C 215.26,-190.8900 195.29,-204.7300 179.67,-215.56 L 179.3000,-215.81"/></g><g fill="rgb(0%, 0%, 0%)" stroke="rgb(-51%, 30%, 37%)" stroke-width="1.0" fill-opacity="0.0" stroke-opacity="1.0"><path d="M 261.93,-180.3000 C 265.93,-191.07 271.05,-204.8700 275.05,-215.64 L 275.15,-215.9000"/></g><g fill="rgb(0%, 0%, 0%)" stroke="rgb(-51%, 30%, 37%)" stroke-width="1.0" fill-opacity="0.0" stroke-opacity="1.0"><path d="M 281.5,-252.3000 C 281.5,-263.07 281.5,-276.87 281.5,-287.64 L 281.5,-287.9"/></g><g fill="rgb(0%, 0%, 0%)" stroke="rgb(-51%, 30%, 37%)" stroke-width="1.0" fill-opacity="0.0" stroke-opacity="1.0"><path d="M 140.48,-108.3 C 141.71,-119.07 143.2800,-132.87 144.52,-143.64 L 144.55,-143.9"/></g><g fill="rgb(0%, 0%, 0%)" stroke="rgb(-51%, 30%, 37%)" stroke-width="1.0" fill-opacity="0.0" stroke-opacity="1.0"><path d="M 131.67,-33.503 C 134.99,-34.3890 138.29,-35.2310 141.5,-36.0 C 228.49,-56.813 254.19,-45.118 339.5,-72.0 C 342.64,-72.988 345.85,-74.178 349.02,-75.464 L 349.32,-75.589"/></g><g fill="rgb(0%, 0%, 0%)" stroke="rgb(-51%, 30%, 37%)" stroke-width="1.0" fill-opacity="0.0" stroke-opacity="1.0"><path d="M 85.48,-36.185 C 87.094,-54.712 91.3430,-84.678 102.5,-108.0000 C 108.8,-121.1700 119.1,-133.83 128.14,-143.4700 L 128.57,-143.93"/></g><g fill="rgb(0%, 0%, 0%)" stroke="rgb(-51%, 30%, 37%)" stroke-width="1.0" fill-opacity="0.0" stroke-opacity="1.0"><path d="M 292.65,-36.124 C 309.72,-46.887 331.67,-60.732 348.84,-71.555 L 349.24,-71.81"/></g><g fill="rgb(0%, 0%, 0%)" stroke="rgb(-51%, 30%, 37%)" stroke-width="1.0" fill-opacity="0.0" stroke-opacity="1.0"><path d="M 148.48,-180.3000 C 149.71,-191.07 151.28,-204.8700 152.52,-215.64 L 152.55,-215.9000"/></g><g fill="rgb(0%, 0%, 0%)" stroke="rgb(-51%, 30%, 37%)" stroke-width="1.0" fill-opacity="0.0" stroke-opacity="1.0"><path d="M 123.76,-180.3000 C 109.61,-191.07 91.476,-204.8700 77.314,-215.64 L 76.98,-215.9000"/></g><g fill="rgb(0%, 0%, 0%)" stroke="rgb(-51%, 30%, 37%)" stroke-width="1.0" fill-opacity="0.0" stroke-opacity="1.0"><path d="M 55.1,-107.24 C 74.311,-118.5400 99.821,-133.54 119.01,-144.83 L 119.46,-145.09"/></g><g fill="rgb(0%, 0%, 0%)" stroke="rgb(-51%, 30%, 37%)" stroke-width="1.0" fill-opacity="0.0" stroke-opacity="1.0"><path d="M 66.86,-252.3000 C 74.549,-263.07 84.404,-276.87 92.101,-287.64 L 92.283,-287.9"/></g><g fill="rgb(0%, 0%, 0%)" stroke="rgb(-51%, 30%, 37%)" stroke-width="1.0" fill-opacity="0.0" stroke-opacity="1.0"><path d="M 220.02,-32.535 C 223.22,-33.729 226.41,-34.9 229.5,-36.0 C 277.9500,-53.2750 291.61,-53.2310 339.5,-72.0 C 342.56,-73.199 345.73,-74.524 348.87,-75.889 L 349.17,-76.021"/></g><g fill="rgb(0%, 0%, 0%)" stroke="rgb(-51%, 30%, 37%)" stroke-width="1.0" fill-opacity="0.0" stroke-opacity="1.0"><path d="M 555.07,-36.0340 C 507.09,-50.2640 440.79,-69.93 403.97,-80.854 L 403.53,-80.982"/></g></g><g class="shapes"><g fill="rgb(2%, 73%, 80%)" stroke="rgb(-51%, 30%, 37%)" stroke-width="1.0" fill-opacity="0.2" stroke-opacity="1.0"><rect x="71.99992" width="65.00016" y="-324.0" height="36.0"/></g><g fill="rgb(2%, 73%, 80%)" stroke="rgb(-51%, 30%, 37%)" stroke-width="1.0" fill-opacity="0.2" stroke-opacity="1.0"><rect x="262.00012" width="68.99976000000004" y="-108.0" height="36.0"/></g><g fill="rgb(2%, 73%, 80%)" stroke="rgb(-51%, 30%, 37%)" stroke-width="1.0" fill-opacity="0.2" stroke-opacity="1.0"><rect x="112.9992" width="83.0016" y="-252.0" height="36.0"/></g><g fill="rgb(2%, 73%, 80%)" stroke="rgb(-51%, 30%, 37%)" stroke-width="1.0" fill-opacity="0.2" stroke-opacity="1.0"><rect x="344.49996" width="64.00008000000003" y="-180.0" height="36.0"/></g><g fill="rgb(2%, 73%, 80%)" stroke="rgb(-51%, 30%, 37%)" stroke-width="1.0" fill-opacity="0.2" stroke-opacity="1.0"><rect x="460.50016000000005" width="67.99968000000001" y="-36.0" height="36.0"/></g><g fill="rgb(2%, 73%, 80%)" stroke="rgb(-51%, 30%, 37%)" stroke-width="1.0" fill-opacity="0.2" stroke-opacity="1.0"><rect x="349.5" width="54.0" y="-108.0" height="36.0"/></g><g fill="rgb(2%, 73%, 80%)" stroke="rgb(-51%, 30%, 37%)" stroke-width="1.0" fill-opacity="0.2" stroke-opacity="1.0"><rect x="183.50012" width="59.99975999999998" y="-108.0" height="36.0"/></g><g fill="rgb(2%, 73%, 80%)" stroke="rgb(-51%, 30%, 37%)" stroke-width="1.0" fill-opacity="0.2" stroke-opacity="1.0"><rect x="310.5012" width="131.99760000000003" y="-36.0" height="36.0"/></g><g fill="rgb(2%, 73%, 80%)" stroke="rgb(-51%, 30%, 37%)" stroke-width="1.0" fill-opacity="0.2" stroke-opacity="1.0"><rect x="225.50012" width="59.99976000000001" y="-180.0" height="36.0"/></g><g fill="rgb(2%, 73%, 80%)" stroke="rgb(-51%, 30%, 37%)" stroke-width="1.0" fill-opacity="0.2" stroke-opacity="1.0"><rect x="233.5012" width="95.9976" y="-324.0" height="36.0"/></g><g fill="rgb(2%, 73%, 80%)" stroke="rgb(-51%, 30%, 37%)" stroke-width="1.0" fill-opacity="0.2" stroke-opacity="1.0"><rect x="214.5004" width="133.99919999999997" y="-252.0" height="36.0"/></g><g fill="rgb(2%, 73%, 80%)" stroke="rgb(-51%, 30%, 37%)" stroke-width="1.0" fill-opacity="0.2" stroke-opacity="1.0"><rect x="111.5" width="54.0" y="-108.0" height="36.0"/></g><g fill="rgb(2%, 73%, 80%)" stroke="rgb(-51%, 30%, 37%)" stroke-width="1.0" fill-opacity="0.2" stroke-opacity="1.0"><rect x="37.4984" width="94.00319999999999" y="-36.0" height="36.0"/></g><g fill="rgb(2%, 73%, 80%)" stroke="rgb(-51%, 30%, 37%)" stroke-width="1.0" fill-opacity="0.2" stroke-opacity="1.0"><rect x="238.5" width="54.0" y="-36.0" height="36.0"/></g><g fill="rgb(2%, 73%, 80%)" stroke="rgb(-51%, 30%, 37%)" stroke-width="1.0" fill-opacity="0.2" stroke-opacity="1.0"><rect x="119.5" width="54.0" y="-180.0" height="36.0"/></g><g fill="rgb(2%, 73%, 80%)" stroke="rgb(-51%, 30%, 37%)" stroke-width="1.0" fill-opacity="0.2" stroke-opacity="1.0"><rect x="-3.999999999848569e-5" width="55.00008" y="-108.0" height="36.0"/></g><g fill="rgb(2%, 73%, 80%)" stroke="rgb(-51%, 30%, 37%)" stroke-width="1.0" fill-opacity="0.2" stroke-opacity="1.0"><rect x="14.500399999999999" width="79.9992" y="-252.0" height="36.0"/></g><g fill="rgb(2%, 73%, 80%)" stroke="rgb(-51%, 30%, 37%)" stroke-width="1.0" fill-opacity="0.2" stroke-opacity="1.0"><rect x="151.00012" width="68.99975999999998" y="-36.0" height="36.0"/></g><g fill="rgb(2%, 73%, 80%)" stroke="rgb(-51%, 30%, 37%)" stroke-width="1.0" fill-opacity="0.2" stroke-opacity="1.0"><rect x="547.0016" width="130.9967999999999" y="-36.0" height="36.0"/></g></g><g class="labels"><g fill="rgb(-51%, 30%, 37%)" stroke="none" stroke-width="0.0" font-size="14.0" fill-opacity="1.0" text-anchor="middle"><text x="104.5" y="-302.3"><a href="https://hackage.haskell.org/package/numhask/docs/NumHask-Algebra-Additive.html#t:Additive">Additive</a></text><text x="296.5" y="-86.3"><a href="https://hackage.haskell.org/package/numhask/docs/NumHask-Algebra-Metric.html#t:Direction">Direction</a></text><text x="154.5" y="-230.3"><a href="https://hackage.haskell.org/package/numhask/docs/NumHask-Algebra-Distributive.html#t:Distributive">Distributive</a></text><text x="376.5" y="-158.3"><a href="https://hackage.haskell.org/package/numhask/docs/NumHask-Algebra-Multiplicative.html#t:Divisive">Divisive</a></text><text x="494.50000000000006" y="-14.3"><a href="https://hackage.haskell.org/package/numhask/docs/NumHask-Algebra-Field.html#t:ExpField">ExpField</a></text><text x="376.5" y="-86.3"><a href="https://hackage.haskell.org/package/numhask/docs/NumHask-Algebra-Field.html#t:Field">Field</a></text><text x="213.5" y="-86.3"><a href="https://hackage.haskell.org/package/numhask/docs/NumHask-Data-Integral.html#t:Integral">Integral</a></text><text x="376.5" y="-14.3"><a href="https://hackage.haskell.org/package/numhask/docs/NumHask-Algebra-Field.html#t:LowerBoundedField">LowerBoundedField</a></text><text x="255.5" y="-158.3"><a href="https://hackage.haskell.org/package/numhask/docs/NumHask-Algebra-Action.html#t:Action">Action</a></text><text x="281.5" y="-302.3"><a href="https://hackage.haskell.org/package/numhask/docs/NumHask-Algebra-Multiplicative.html#t:Multiplicative">Multiplicative</a></text><text x="281.5" y="-230.3"><a href="https://hackage.haskell.org/package/numhask/docs/NumHask-Algebra-Action.html#t:MultiplicativeAction">MultiplicativeAction</a></text><text x="138.5" y="-86.3"><a href="https://hackage.haskell.org/package/numhask/docs/NumHask-Algebra-Metric.html#t:Norm">Norm</a></text><text x="84.5" y="-14.3"><a href="https://hackage.haskell.org/package/numhask/docs/NumHask-Algebra-Field.html#t:QuotientField">QuotientField</a></text><text x="265.5" y="-14.3"><a href="https://hackage.haskell.org/package/numhask/docs/NumHask-Data-Rational.html#t:Ratio">Ratio</a></text><text x="146.5" y="-158.3"><a href="https://hackage.haskell.org/package/numhask/docs/NumHask-Algebra-Ring.html#t:Ring">Ring</a></text><text x="27.5" y="-86.3"><a href="https://hackage.haskell.org/package/numhask/docs/NumHask-Algebra-Metric.html#t:Signed">Signed</a></text><text x="54.5" y="-230.3"><a href="https://hackage.haskell.org/package/numhask/docs/NumHask-Algebra-Additive.html#t:Subtractive">Subtractive</a></text><text x="185.5" y="-14.3"><a href="https://hackage.haskell.org/package/numhask/docs/NumHask-Algebra-Field.html#t:TrigField">TrigField</a></text><text x="612.5" y="-14.3"><a href="https://hackage.haskell.org/package/numhask/docs/NumHask-Algebra-Field.html#t:UpperBoundedField">UpperBoundedField</a></text></g></g></g><g class="hud"></g></svg>
