<svg xmlns="http://www.w3.org/2000/svg" height="300.0" viewBox="-1.1992055357331681 -0.5225 2.3984110714663363 1.045" width="688.5390635788526" xmlns:xlink="http://www.w3.org/1999/xlink"><g stroke-opacity="1.0" fill-opacity="0.0" stroke="#1f78b4" stroke-width="5.0e-3" fill="#000000"><path d="M -0.2848,-0.413 C -0.2536,-0.373 -0.2075,-0.313 -0.1763,-0.273"/></g><g stroke-opacity="1.0" fill-opacity="0.0" stroke="#1f78b4" stroke-width="5.0e-3" fill="#000000"><path d="M -0.3520,-0.413 C -0.3826,-0.373 -0.4276,-0.313 -0.4581,-0.273"/></g><g stroke-opacity="1.0" fill-opacity="0.0" stroke="#1f78b4" stroke-width="5.0e-3" fill="#000000"><path d="M -0.1311,-0.185 C -0.1207,-0.144 -0.1053,-0.084 -0.0949,-0.044"/></g><g stroke-opacity="1.0" fill-opacity="0.0" stroke="#1f78b4" stroke-width="5.0e-3" fill="#000000"><path d="M -1.0140,-0.414 C -1.0692,-0.383 -1.1338,-0.336 -1.1655,-0.272"/></g><g stroke-opacity="1.0" fill-opacity="0.0" stroke="#1f78b4" stroke-width="5.0e-3" fill="#000000"><path d="M -1.1655,-0.272 C -1.2066,-0.190 -1.1257,-0.097 -1.0667,-0.044"/></g><g stroke-opacity="1.0" fill-opacity="0.0" stroke="#1f78b4" stroke-width="5.0e-3" fill="#000000"><path d="M -0.8372,-0.414 C -0.7612,-0.373 -0.6483,-0.313 -0.5723,-0.272"/></g><g stroke-opacity="1.0" fill-opacity="0.0" stroke="#1f78b4" stroke-width="5.0e-3" fill="#000000"><path d="M -0.9185,-0.413 C -0.9185,-0.373 -0.9185,-0.313 -0.9185,-0.273"/></g><g stroke-opacity="1.0" fill-opacity="0.0" stroke="#1f78b4" stroke-width="5.0e-3" fill="#000000"><path d="M -0.9015,0.028 C -0.7154,0.074 -0.3445,0.166 -0.1770,0.207"/></g><g stroke-opacity="1.0" fill-opacity="0.0" stroke="#1f78b4" stroke-width="5.0e-3" fill="#000000"><path d="M -0.4127,-0.185 C -0.3400,-0.144 -0.2327,-0.084 -0.1606,-0.043"/></g><g stroke-opacity="1.0" fill-opacity="0.0" stroke="#1f78b4" stroke-width="5.0e-3" fill="#000000"><path d="M -0.5072,-0.185 C -0.5217,-0.144 -0.5432,-0.084 -0.5578,-0.044"/></g><g stroke-opacity="1.0" fill-opacity="0.0" stroke="#1f78b4" stroke-width="5.0e-3" fill="#000000"><path d="M -0.0851,0.044 C -0.0865,0.085 -0.0886,0.144 -0.0900,0.185"/></g><g stroke-opacity="1.0" fill-opacity="0.0" stroke="#1f78b4" stroke-width="5.0e-3" fill="#000000"><path d="M -0.0067,0.004 C 0.2507,0.017 1.0704,0.066 1.1472,0.154"/></g><g stroke-opacity="1.0" fill-opacity="0.0" stroke="#1f78b4" stroke-width="5.0e-3" fill="#000000"><path d="M 1.1472,0.154 C 1.1911,0.204 1.1817,0.247 1.1472,0.304"/></g><g stroke-opacity="1.0" fill-opacity="0.0" stroke="#1f78b4" stroke-width="5.0e-3" fill="#000000"><path d="M 1.1472,0.304 C 1.1151,0.356 1.0585,0.392 1.0032,0.415"/></g><g stroke-opacity="1.0" fill-opacity="0.0" stroke="#1f78b4" stroke-width="5.0e-3" fill="#000000"><path d="M -0.0071,0.005 C 0.1543,0.016 0.5396,0.052 0.8454,0.154"/></g><g stroke-opacity="1.0" fill-opacity="0.0" stroke="#1f78b4" stroke-width="5.0e-3" fill="#000000"><path d="M 0.8454,0.154 C 0.8696,0.162 0.8947,0.173 0.9171,0.185"/></g><g stroke-opacity="1.0" fill-opacity="0.0" stroke="#1f78b4" stroke-width="5.0e-3" fill="#000000"><path d="M -0.0066,0.010 C 0.1197,0.029 0.3773,0.074 0.5828,0.154"/></g><g stroke-opacity="1.0" fill-opacity="0.0" stroke="#1f78b4" stroke-width="5.0e-3" fill="#000000"><path d="M 0.5828,0.154 C 0.6045,0.162 0.6271,0.174 0.6473,0.185"/></g><g stroke-opacity="1.0" fill-opacity="0.0" stroke="#1f78b4" stroke-width="5.0e-3" fill="#000000"><path d="M -0.0061,0.021 C 0.0842,0.046 0.2366,0.093 0.3593,0.154"/></g><g stroke-opacity="1.0" fill-opacity="0.0" stroke="#1f78b4" stroke-width="5.0e-3" fill="#000000"><path d="M 0.3593,0.154 C 0.3771,0.163 0.3955,0.174 0.4121,0.185"/></g><g stroke-opacity="1.0" fill-opacity="0.0" stroke="#1f78b4" stroke-width="5.0e-3" fill="#000000"><path d="M -0.0277,0.044 C 0.0237,0.085 0.0994,0.144 0.1507,0.185"/></g><g stroke-opacity="1.0" fill-opacity="0.0" stroke="#1f78b4" stroke-width="5.0e-3" fill="#000000"><path d="M -0.0227,0.272 C -0.0024,0.283 0.0201,0.295 0.0418,0.304"/></g><g stroke-opacity="1.0" fill-opacity="0.0" stroke="#1f78b4" stroke-width="5.0e-3" fill="#000000"><path d="M 0.0418,0.304 C 0.1804,0.358 0.2275,0.331 0.3672,0.382"/></g><g stroke-opacity="1.0" fill-opacity="0.0" stroke="#1f78b4" stroke-width="5.0e-3" fill="#000000"><path d="M 0.3672,0.382 C 0.3905,0.391 0.4150,0.402 0.4372,0.413"/></g><g stroke-opacity="1.0" fill-opacity="0.0" stroke="#1f78b4" stroke-width="5.0e-3" fill="#000000"><path d="M -0.0259,0.272 C -0.0051,0.284 0.0187,0.296 0.0418,0.304"/></g><g stroke-opacity="1.0" fill-opacity="0.0" stroke="#1f78b4" stroke-width="5.0e-3" fill="#000000"><path d="M 0.0418,0.304 C 0.3054,0.391 0.3924,0.313 0.6612,0.382"/></g><g stroke-opacity="1.0" fill-opacity="0.0" stroke="#1f78b4" stroke-width="5.0e-3" fill="#000000"><path d="M 0.6612,0.382 C 0.6918,0.390 0.7241,0.402 0.7532,0.414"/></g><g stroke-opacity="1.0" fill-opacity="0.0" stroke="#1f78b4" stroke-width="5.0e-3" fill="#000000"><path d="M -0.0915,0.273 C -0.0915,0.313 -0.0915,0.373 -0.0915,0.413"/></g><g stroke-opacity="1.0" fill-opacity="0.0" stroke="#1f78b4" stroke-width="5.0e-3" fill="#000000"><path d="M -0.1758,0.272 C -0.2546,0.313 -0.3716,0.373 -0.4504,0.414"/></g><g stroke-opacity="1.0" fill-opacity="0.0" stroke="#1f78b4" stroke-width="5.0e-3" fill="#000000"><path d="M -0.1763,0.242 C -0.3047,0.263 -0.5547,0.310 -0.7578,0.382"/></g><g stroke-opacity="1.0" fill-opacity="0.0" stroke="#1f78b4" stroke-width="5.0e-3" fill="#000000"><path d="M -0.7578,0.382 C -0.7818,0.391 -0.8069,0.402 -0.8297,0.413"/></g><g stroke-opacity="1.0" fill-opacity="0.0" stroke="#1f78b4" stroke-width="5.0e-3" fill="#000000"><path d="M -0.0257,0.273 C 0.0347,0.313 0.1237,0.373 0.1840,0.413"/></g><g stroke-opacity="1.0" fill-opacity="0.0" stroke="#1f78b4" stroke-width="5.0e-3" fill="#000000"><path d="M -0.8520,-0.185 C -0.7910,-0.144 -0.7009,-0.084 -0.6399,-0.044"/></g><g stroke-opacity="0.8" fill-opacity="0.1" stroke="#1f78b4" stroke-width="5.0e-3" fill="#a6cee3"><rect height="8.534662209045607e-2" width="0.22000193566955695" x="-0.428805203927738" y="-0.5"/></g><g stroke-opacity="0.8" fill-opacity="0.1" stroke="#1f78b4" stroke-width="5.0e-3" fill="#a6cee3"><rect height="8.534662209045618e-2" width="0.27107209623570483" x="-0.27794550797302786" y="-0.2713366555226141"/></g><g stroke-opacity="0.8" fill-opacity="0.1" stroke="#1f78b4" stroke-width="5.0e-3" fill="#a6cee3"><rect height="8.534662209045607e-2" width="0.322147913978321" x="-1.0796204322905858" y="-0.5"/></g><g stroke-opacity="0.8" fill-opacity="0.1" stroke="#1f78b4" stroke-width="5.0e-3" fill="#a6cee3"><rect height="8.534662209045629e-2" width="0.22000193566955706" x="-1.1226246571296887" y="-4.26733110452282e-2"/></g><g stroke-opacity="0.8" fill-opacity="0.1" stroke="#1f78b4" stroke-width="5.0e-3" fill="#a6cee3"><rect height="8.534662209045618e-2" width="0.28679056105243594" x="-0.6346744089405665" y="-0.2713366555226141"/></g><g stroke-opacity="0.8" fill-opacity="0.1" stroke="#1f78b4" stroke-width="5.0e-3" fill="#a6cee3"><rect height="8.534662209045629e-2" width="0.15321613887491203" x="-0.16021927054670337" y="-4.26733110452282e-2"/></g><g stroke-opacity="0.8" fill-opacity="0.1" stroke="#1f78b4" stroke-width="5.0e-3" fill="#a6cee3"><rect height="8.534662209045607e-2" width="0.16892894651517532" x="-0.17591544219962563" y="0.18599003343215792"/></g><g stroke-opacity="0.8" fill-opacity="0.1" stroke="#1f78b4" stroke-width="5.0e-3" fill="#a6cee3"><rect height="8.534662209045607e-2" width="0.22000193566955728" x="0.4061300702644397" y="0.41465337790954393"/></g><g stroke-opacity="0.8" fill-opacity="0.1" stroke="#1f78b4" stroke-width="5.0e-3" fill="#a6cee3"><rect height="8.534662209045607e-2" width="0.3064209633968875" x="0.6961106892943665" y="0.41465337790954393"/></g><g stroke-opacity="0.8" fill-opacity="0.1" stroke="#1f78b4" stroke-width="5.0e-3" fill="#a6cee3"><rect height="8.534662209045607e-2" width="0.3732039316032981" x="-0.278052934743687" y="0.41465337790954393"/></g><g stroke-opacity="0.8" fill-opacity="0.1" stroke="#1f78b4" stroke-width="5.0e-3" fill="#a6cee3"><rect height="8.534662209045607e-2" width="0.37320393160329823" x="-0.7209998172963448" y="0.41465337790954393"/></g><g stroke-opacity="0.8" fill-opacity="0.1" stroke="#1f78b4" stroke-width="5.0e-3" fill="#a6cee3"><rect height="8.534662209045607e-2" width="0.2357147433098199" x="-1.0285640791235449" y="0.41465337790954393"/></g><g stroke-opacity="0.8" fill-opacity="0.1" stroke="#1f78b4" stroke-width="5.0e-3" fill="#a6cee3"><rect height="8.534662209045618e-2" width="0.42428823511061653" x="-1.1306905928567335" y="-0.2713366555226141"/></g><g stroke-opacity="0.8" fill-opacity="0.1" stroke="#1f78b4" stroke-width="5.0e-3" fill="#a6cee3"><rect height="8.534662209045629e-2" width="0.18857349180079652" x="-0.6678834365590459" y="-4.26733110452282e-2"/></g><g stroke-opacity="0.8" fill-opacity="0.1" stroke="#1f78b4" stroke-width="5.0e-3" fill="#a6cee3"><rect height="8.534662209045607e-2" width="0.22000193566955728" x="0.8804360241482592" y="0.18599003343215792"/></g><g stroke-opacity="0.8" fill-opacity="0.1" stroke="#1f78b4" stroke-width="5.0e-3" fill="#a6cee3"><rect height="8.534662209045607e-2" width="0.16892894651517443" x="0.16511445852675743" y="0.41465337790954393"/></g><g stroke-opacity="0.8" fill-opacity="0.1" stroke="#1f78b4" stroke-width="5.0e-3" fill="#a6cee3"><rect height="8.534662209045607e-2" width="0.18857349180079686" x="0.6217583719349751" y="0.18599003343215792"/></g><g stroke-opacity="0.8" fill-opacity="0.1" stroke="#1f78b4" stroke-width="5.0e-3" fill="#a6cee3"><rect height="8.534662209045607e-2" width="0.1532161388749118" x="0.39640424558141496" y="0.18599003343215792"/></g><g stroke-opacity="0.8" fill-opacity="0.1" stroke="#1f78b4" stroke-width="5.0e-3" fill="#a6cee3"><rect height="8.534662209045607e-2" width="0.23571474330982012" x="8.860283704908722e-2" y="0.18599003343215792"/></g><g fill-opacity="1.0" font-size="4.0e-2" stroke="none" stroke-width="0.0" fill="#333333" text-anchor="middle"><text x="-0.3188042360929595" y="-0.4494417460417588">Additive</text><text x="-0.1424094598551755" y="-0.22077840156437267">Subtractive</text><text x="-0.9185464753014252" y="-0.4494417460417588">Multiplicative</text><text x="-1.0126236892949103" y="7.884942913013337e-3">Divisive</text><text x="-0.4912791284143482" y="-0.22077840156437267">Distributive</text><text x="-8.361120110924736e-2" y="7.884942913013337e-3">Ring</text><text x="-9.145096894203797e-2" y="0.2365482873903993">Field</text><text x="0.5161310380992183" y="0.4652116318677853">ExpField</text><text x="0.8493211709928097" y="0.4652116318677853">QuotientField</text><text x="-9.145096894203797e-2" y="0.4652116318677853">UpperBoundedField</text><text x="-0.5343978514946957" y="0.4652116318677853">LowerBoundedField</text><text x="-0.9107067074686348" y="0.4652116318677853">TrigField</text><text x="-0.9185464753014252" y="-0.22077840156437267">MultiplicativeAction</text><text x="-0.5735966906586477" y="7.884942913013337e-3">Module</text><text x="0.9904369919830376" y="0.2365482873903993">Integral</text><text x="0.24957893178434443" y="0.4652116318677853">Ratio</text><text x="0.7160451178353733" y="0.2365482873903993">Signed</text><text x="0.4730123150188712" y="0.2365482873903993">Norm</text><text x="0.2064602087039975" y="0.2365482873903993">Direction</text></g></svg>