<svg xmlns="http://www.w3.org/2000/svg" height="300.0" viewBox="-1.3272601028929194 -0.5225 2.6545202359344846 1.045" width="762.0632256271249" xmlns:xlink="http://www.w3.org/1999/xlink"><g stroke-opacity="1.0" fill-opacity="0.0" stroke="#1f78b4" stroke-width="5.0e-3" fill="#000000"><path d="M -0.40772631799309655,-0.41324985807102754 C -0.37634591725015565,-0.3727602675443493 -0.33002251238215996,-0.3130720675697574 -0.29864211163921905,-0.272621901217435"/></g><g stroke-opacity="1.0" fill-opacity="0.0" stroke="#1f78b4" stroke-width="5.0e-3" fill="#000000"><path d="M -0.4753766606397366,-0.41324985807102754 C -0.506126293407361,-0.3727602788550884 -0.5513852627319664,-0.3130720562440669 -0.5820560471209765,-0.272621901217435"/></g><g stroke-opacity="1.0" fill-opacity="0.0" stroke="#1f78b4" stroke-width="5.0e-3" fill="#000000"><path d="M -0.2531476504421204,-0.18458651359364164 C -0.24266132234682278,-0.14409726347004187 -0.2272462942350584,-8.440838223932204e-2 -0.21675996613976078,-4.3958556740049115e-2"/></g><g stroke-opacity="1.0" fill-opacity="0.0" stroke="#1f78b4" stroke-width="5.0e-3" fill="#000000"><path d="M -1.1410781093175704,-0.41368352993124347 C -1.1966133296558348,-0.3827737725331272 -1.2616510084726718,-0.3355044648399785 -1.2934884966555136,-0.2720305304989592"/></g><g stroke-opacity="1.0" fill-opacity="0.0" stroke="#1f78b4" stroke-width="5.0e-3" fill="#000000"><path d="M -1.2934884966555136,-0.2720305304989592 C -1.334838421214371,-0.18959326789316264 -1.2534662823983234,-9.666975471999202e-2 -1.194133954966666,-4.356430959439861e-2"/></g><g stroke-opacity="1.0" fill-opacity="0.0" stroke="#1f78b4" stroke-width="5.0e-3" fill="#000000"><path d="M -0.9632791318488372,-0.4137623793603733 C -0.8868378551411453,-0.3730752160745089 -0.7732979046549968,-0.31267827019090483 -0.6969354751351426,-0.2720305304989592"/></g><g stroke-opacity="1.0" fill-opacity="0.0" stroke="#1f78b4" stroke-width="5.0e-3" fill="#000000"><path d="M -1.0451218540716953,-0.41324985807102754 C -1.0451218540716953,-0.37276067621270415 -1.0451218540716953,-0.3130716583611933 -1.0451218540716953,-0.272621901217435"/></g><g stroke-opacity="1.0" fill-opacity="0.0" stroke="#1f78b4" stroke-width="5.0e-3" fill="#000000"><path d="M -1.0279884980610718,2.7597300195546515e-2 C -0.8407913823503121,7.380456834137789e-2 -0.4677675580274355,0.16585811196787514 -0.29935173061803044,0.20742525074118462"/></g><g stroke-opacity="1.0" fill-opacity="0.0" stroke="#1f78b4" stroke-width="5.0e-3" fill="#000000"><path d="M -0.5363644695408739,-0.18458651359364164 C -0.46327417928183673,-0.14382052574894766 -0.3553717373320544,-8.362066135095078e-2 -0.2828333777223766,-4.317006244874788e-2"/></g><g stroke-opacity="1.0" fill-opacity="0.0" stroke="#1f78b4" stroke-width="5.0e-3" fill="#000000"><path d="M -0.6313745661483345,-0.18458651359364164 C -0.6460396773101297,-0.14409720574515406 -0.6676443296259436,-8.440844004051506e-2 -0.6822700162397171,-4.3958556740049115e-2"/></g><g stroke-opacity="1.0" fill-opacity="0.0" stroke="#1f78b4" stroke-width="5.0e-3" fill="#000000"><path d="M -0.2069435702662099,4.407683088374437e-2 C -0.20832334688642618,8.456601403400509e-2 -0.21037343195501076,0.1442550293001042 -0.2117926332880844,0.18470873020879325"/></g><g stroke-opacity="1.0" fill-opacity="0.0" stroke="#1f78b4" stroke-width="5.0e-3" fill="#000000"><path d="M -0.12762393774579062,2.1289345865134757e-3 C 0.16371390354103976,1.0883638863906017e-2 1.1783906254059469,4.880884697774715e-2 1.2729668100439409,0.15375638680375947"/></g><g stroke-opacity="1.0" fill-opacity="0.0" stroke="#1f78b4" stroke-width="5.0e-3" fill="#000000"><path d="M 1.2729668100439409,0.15375638680375947 C 1.3175561622170309,0.20321469122563549 1.3131011694711785,0.25043367186021576 1.2729668100439409,0.30357030215101244"/></g><g stroke-opacity="1.0" fill-opacity="0.0" stroke="#1f78b4" stroke-width="5.0e-3" fill="#000000"><path d="M 1.2729668100439409,0.30357030215101244 C 1.2264084702019598,0.3652346182494546 1.030474047349467,0.4094795282630064 0.8879590907624222,0.434239576105469"/></g><g stroke-opacity="1.0" fill-opacity="0.0" stroke="#1f78b4" stroke-width="5.0e-3" fill="#000000"><path d="M -0.12845182655440346,6.5839273323659575e-3 C 9.846834622732453e-2,2.657417802084827e-2 0.7622384817315179,8.913895826941713e-2 0.9694075802192741,0.15375638680375947"/></g><g stroke-opacity="1.0" fill-opacity="0.0" stroke="#1f78b4" stroke-width="5.0e-3" fill="#000000"><path d="M 0.9694075802192741,0.15375638680375947 C 0.9938499458607015,0.1613655983082258 1.0191598320228068,0.17290485637621372 1.0416704462281852,0.18464170819403275"/></g><g stroke-opacity="1.0" fill-opacity="0.0" stroke="#1f78b4" stroke-width="5.0e-3" fill="#000000"><path d="M -0.1284124032778029,3.7453478836813048e-3 C 3.192176968065347e-2,1.3485558955650429e-2 0.41141066037443813,4.691653540571595e-2 0.7092139546552743,0.15375638680375947"/></g><g stroke-opacity="1.0" fill-opacity="0.0" stroke="#1f78b4" stroke-width="5.0e-3" fill="#000000"><path d="M 0.7092139546552743,0.15375638680375947 C 0.7312909185329111,0.16168098234246328 0.7539200351897487,0.1732872749274336 0.7739863981100699,0.18501230051094425"/></g><g stroke-opacity="1.0" fill-opacity="0.0" stroke="#1f78b4" stroke-width="5.0e-3" fill="#000000"><path d="M -0.12754509119258928,8.239765344098926e-3 C 2.669648018121279e-3,2.4011617175743308e-2 0.2709455752420264,6.505132918751191e-2 0.4805589503717591,0.15375638680375947"/></g><g stroke-opacity="1.0" fill-opacity="0.0" stroke="#1f78b4" stroke-width="5.0e-3" fill="#000000"><path d="M 0.4805589503717591,0.15375638680375947 C 0.49979743425016554,0.16187808395572692 0.519312122502281,0.17328727745100408 0.5366582729744218,0.18473632750898883"/></g><g stroke-opacity="1.0" fill-opacity="0.0" stroke="#1f78b4" stroke-width="5.0e-3" fill="#000000"><path d="M -0.12774220757559274,2.1210496436005755e-2 C -3.722675600143652e-2,4.719268403838835e-2 0.11577562185940418,9.50527424571105e-2 0.24007696310806192,0.15375638680375947"/></g><g stroke-opacity="1.0" fill-opacity="0.0" stroke="#1f78b4" stroke-width="5.0e-3" fill="#000000"><path d="M 0.24007696310806192,0.15375638680375947 C 0.25896063369675715,0.16266655683721626 0.27863301484955083,0.17381555361078355 0.2965310952001299,0.1847442124519018"/></g><g stroke-opacity="1.0" fill-opacity="0.0" stroke="#1f78b4" stroke-width="5.0e-3" fill="#000000"><path d="M -0.14914904676972163,4.407683088374437e-2 C -9.75050827758851e-2,8.456668662534908e-2 -2.133825513036678e-2,0.1442543559086383 3.0266285039636465e-2,0.18470873020879325"/></g><g stroke-opacity="1.0" fill-opacity="0.0" stroke="#1f78b4" stroke-width="5.0e-3" fill="#000000"><path d="M -0.1441028673648439,0.2720541853276982 C -0.12376054083827723,0.2834993072257141 -0.10109199883330727,0.2950188689193701 -7.925157735684696e-2,0.30357030215101244"/></g><g stroke-opacity="1.0" fill-opacity="0.0" stroke="#1f78b4" stroke-width="5.0e-3" fill="#000000"><path d="M -7.925157735684696e-2,0.30357030215101244 C 6.0070233539384524e-2,0.3580862772066265 0.10745710686654805,0.33111675969987736 0.24796161842818298,0.3824197312811455"/></g><g stroke-opacity="1.0" fill-opacity="0.0" stroke="#1f78b4" stroke-width="5.0e-3" fill="#000000"><path d="M 0.24796161842818298,0.3824197312811455 C 0.2714578217870323,0.3909948186677179 0.2960580921503477,0.40226205788219793 0.31841101371346614,0.4134469816438529"/></g><g stroke-opacity="1.0" fill-opacity="0.0" stroke="#1f78b4" stroke-width="5.0e-3" fill="#000000"><path d="M -0.14741442259929483,0.27206601274206776 C -0.12640190007330016,0.28407883565458686 -0.10255066460538569,0.29590589456429656 -7.925157735684696e-2,0.30357030215101244"/></g><g stroke-opacity="1.0" fill-opacity="0.0" stroke="#1f78b4" stroke-width="5.0e-3" fill="#000000"><path d="M -7.925157735684696e-2,0.30357030215101244 C 0.1858305078367028,0.39075634379169544 0.27335023223444815,0.31299782829524814 0.5436361929327287,0.3824197312811455"/></g><g stroke-opacity="1.0" fill-opacity="0.0" stroke="#1f78b4" stroke-width="5.0e-3" fill="#000000"><path d="M 0.5436361929327287,0.3824197312811455 C 0.5744257141620492,0.390332523930138 0.6069500386845113,0.401938779856699 0.6362020463909519,0.41366381757396076"/></g><g stroke-opacity="1.0" fill-opacity="0.0" stroke="#1f78b4" stroke-width="5.0e-3" fill="#000000"><path d="M -0.21329071779890785,0.27275200277549994 C -0.21329071779890785,0.3132411846338233 -0.21329071779890785,0.3729262600138775 -0.21329071779890785,0.41337207468617926"/></g><g stroke-opacity="1.0" fill-opacity="0.0" stroke="#1f78b4" stroke-width="5.0e-3" fill="#000000"><path d="M -0.29812960904341135,0.27221188418595854 C -0.3774093712343763,0.31289906079888335 -0.495088746892396,0.3733038646123567 -0.5742502383540564,0.41393979057591623"/></g><g stroke-opacity="1.0" fill-opacity="0.0" stroke="#1f78b4" stroke-width="5.0e-3" fill="#000000"><path d="M -0.29864211163921905,0.24181937172774864 C -0.42771359370506057,0.2631458885528314 -0.6791951762917832,0.31028045198607884 -0.8834864200092105,0.3824197312811455"/></g><g stroke-opacity="1.0" fill-opacity="0.0" stroke="#1f78b4" stroke-width="5.0e-3" fill="#000000"><path d="M -0.8834864200092105,0.3824197312811455 C -0.9075739740012289,0.3909238567815817 -0.9328050135035518,0.40216349640988214 -0.9557492860181213,0.4133484198574402"/></g><g stroke-opacity="1.0" fill-opacity="0.0" stroke="#1f78b4" stroke-width="5.0e-3" fill="#000000"><path d="M -0.14717788293969147,0.27275200277549994 C -8.64271155607927e-2,0.31324193770555986 3.1041502091837536e-3,0.37292550584698103 6.377607015015196e-2,0.41337207468617926"/></g><g stroke-opacity="1.0" fill-opacity="0.0" stroke="#1f78b4" stroke-width="5.0e-3" fill="#000000"><path d="M -0.9782205536804667,-0.18458651359364164 C -0.9167995885852035,-0.14409657344494312 -0.8262433216654539,-8.440907317654917e-2 -0.7649012039945874,-4.3958556740049115e-2"/></g><g stroke-opacity="0.8" fill-opacity="0.1" stroke="#1f78b4" stroke-width="5.0e-3" fill="#a6cee3"><rect height="8.534662209045607e-2" width="0.22126158191301015" x="-0.5525765130389275" y="-0.5"/></g><g stroke-opacity="0.8" fill-opacity="0.1" stroke="#1f78b4" stroke-width="5.0e-3" fill="#a6cee3"><rect height="8.534662209045618e-2" width="0.2726241505241779" x="-0.4008530526417843" y="-0.2713366555226141"/></g><g stroke-opacity="0.8" fill-opacity="0.1" stroke="#1f78b4" stroke-width="5.0e-3" fill="#a6cee3"><rect height="8.534662209045607e-2" width="0.3239924087026247" x="-1.2071180584230077" y="-0.5"/></g><g stroke-opacity="0.8" fill-opacity="0.1" stroke="#1f78b4" stroke-width="5.0e-3" fill="#a6cee3"><rect height="8.534662209045618e-2" width="0.22126158191301015" x="-1.250368508869655" y="-4.267331104522809e-2"/></g><g stroke-opacity="0.8" fill-opacity="0.1" stroke="#1f78b4" stroke-width="5.0e-3" fill="#a6cee3"><rect height="8.534662209045618e-2" width="0.28843261320887814" x="-0.7596244457295283" y="-0.2713366555226141"/></g><g stroke-opacity="0.8" fill-opacity="0.1" stroke="#1f78b4" stroke-width="5.0e-3" fill="#a6cee3"><rect height="8.534662209045618e-2" width="0.15409339540078237" x="-0.28245276017917775" y="-4.267331104522809e-2"/></g><g stroke-opacity="0.8" fill-opacity="0.1" stroke="#1f78b4" stroke-width="5.0e-3" fill="#a6cee3"><rect height="8.534662209045613e-2" width="0.169896168518203" x="-0.2982388020580091" y="0.18599003343215786"/></g><g stroke-opacity="0.8" fill-opacity="0.1" stroke="#1f78b4" stroke-width="5.0e-3" fill="#a6cee3"><rect height="8.534662209045607e-2" width="0.22126158191300993" x="0.28713927855398147" y="0.41465337790954393"/></g><g stroke-opacity="0.8" fill-opacity="0.1" stroke="#1f78b4" stroke-width="5.0e-3" fill="#a6cee3"><rect height="8.534662209045607e-2" width="0.30817541166700635" x="0.5787802147821344" y="0.41465337790954393"/></g><g stroke-opacity="0.8" fill-opacity="0.1" stroke="#1f78b4" stroke-width="5.0e-3" fill="#a6cee3"><rect height="8.534662209045607e-2" width="0.37534075339559436" x="-0.4009610944967048" y="0.41465337790954393"/></g><g stroke-opacity="0.8" fill-opacity="0.1" stroke="#1f78b4" stroke-width="5.0e-3" fill="#a6cee3"><rect height="8.534662209045607e-2" width="0.3753407533955947" x="-0.8464441200835534" y="0.41465337790954393"/></g><g stroke-opacity="0.8" fill-opacity="0.1" stroke="#1f78b4" stroke-width="5.0e-3" fill="#a6cee3"><rect height="8.534662209045607e-2" width="0.23706435503043122" x="-1.1557693762667898" y="0.41465337790954393"/></g><g stroke-opacity="0.8" fill-opacity="0.1" stroke="#1f78b4" stroke-width="5.0e-3" fill="#a6cee3"><rect height="8.534662209045618e-2" width="0.4267175459249599" x="-1.2584806270341753" y="-0.2713366555226141"/></g><g stroke-opacity="0.8" fill-opacity="0.1" stroke="#1f78b4" stroke-width="5.0e-3" fill="#a6cee3"><rect height="8.534662209045618e-2" width="0.1896531908945288" x="-0.7930236154336263" y="-4.267331104522809e-2"/></g><g stroke-opacity="0.8" fill-opacity="0.1" stroke="#1f78b4" stroke-width="5.0e-3" fill="#a6cee3"><rect height="8.534662209045613e-2" width="0.22126158191301082" x="1.004642912685011" y="0.18599003343215786"/></g><g stroke-opacity="0.8" fill-opacity="0.1" stroke="#1f78b4" stroke-width="5.0e-3" fill="#a6cee3"><rect height="8.534662209045607e-2" width="0.169896168518203" x="4.474370436726338e-2" y="0.41465337790954393"/></g><g stroke-opacity="0.8" fill-opacity="0.1" stroke="#1f78b4" stroke-width="5.0e-3" fill="#a6cee3"><rect height="8.534662209045613e-2" width="0.18965319089452848" x="0.7444841719900095" y="0.18599003343215786"/></g><g stroke-opacity="0.8" fill-opacity="0.1" stroke="#1f78b4" stroke-width="5.0e-3" fill="#a6cee3"><rect height="8.534662209045613e-2" width="0.15409339540078237" x="0.5178397548131255" y="0.18599003343215786"/></g><g stroke-opacity="0.8" fill-opacity="0.1" stroke="#1f78b4" stroke-width="5.0e-3" fill="#a6cee3"><rect height="8.534662209045613e-2" width="0.16989616851820366" x="0.27734103631083906" y="0.18599003343215786"/></g><g stroke-opacity="0.8" fill-opacity="0.1" stroke="#1f78b4" stroke-width="5.0e-3" fill="#a6cee3"><rect height="8.534662209045613e-2" width="0.23706435503043122" x="-3.220599314951711e-2" y="0.18599003343215786"/></g><g fill-opacity="1.0" font-size="4.0e-2" stroke="none" stroke-width="0.0" fill="#333333" text-anchor="middle"><text x="-0.44194572208242244" y="-0.4494417460417587">Additive</text><text x="-0.26454097737969584" y="-0.22077840156437267">Subtractive</text><text x="-1.0451218540716953" y="-0.4494417460417587">Multiplicative</text><text x="-1.1397377179131498" y="7.884942913013337e-3">Divisive</text><text x="-0.6154081391250893" y="-0.22077840156437267">Distributive</text><text x="-0.20540606247878634" y="7.884942913013337e-3">Ring</text><text x="-0.21329071779890785" y="0.23654828739039935">Field</text><text x="0.39777006951048666" y="0.4652116318677853">ExpField</text><text x="0.7328679206156379" y="0.4652116318677853">QuotientField</text><text x="-0.21329071779890785" y="0.4652116318677853">UpperBoundedField</text><text x="-0.6587737433857559" y="0.4652116318677853">LowerBoundedField</text><text x="-1.0372371987515743" y="0.4652116318677853">TrigField</text><text x="-1.0451218540716953" y="-0.22077840156437267">MultiplicativeAction</text><text x="-0.6981970199863619" y="7.884942913013337e-3">Module</text><text x="1.1152737036415166" y="0.23654828739039935">Integral</text><text x="0.12969178862636466" y="0.4652116318677853">Ratio</text><text x="0.8393107674372737" y="0.23654828739039935">Signed</text><text x="0.5948864525135167" y="0.23654828739039935">Norm</text><text x="0.362289120569941" y="0.23654828739039935">Basis</text><text x="8.632618436569817e-2" y="0.23654828739039935">Direction</text></g></svg>