<svg height="500" width="500" viewBox="-50 -350 500 400" xmlns="http://www.w3.org/2000/svg" xmlns:xlink="http://www.w3.org/1999/xlink"><style>svg {
  color-scheme: light dark;
}
{
  .canvas g, .title g, .axisbar g, .ticktext g, .tickglyph g, .ticklines g, .legendContent g text {
    fill: rgb(5%, 5%, 5%);
  }
  .ticklines g, .tickglyph g, .legendBorder g {
    stroke: rgb(5%, 5%, 5%);
  }
  .legendBorder g {
    fill: rgb(94%, 94%, 94%);
  }
}
@media (prefers-color-scheme:dark) {
  .canvas g, .title g, .axisbar g, .ticktext g, .tickglyph g, .ticklines g, .legendContent g text {
    fill: rgb(94%, 94%, 94%);
  }
  .ticklines g, .tickglyph g, .legendBorder g {
    stroke: rgb(94%, 94%, 94%);
  }
  .legendBorder g {
    fill: rgb(5%, 5%, 5%);
  }
}</style><g class="chart"><g class="edges"><g fill="rgb(0%, 0%, 0%)" fill-opacity="0" stroke="rgb(33%, -22%, 26%)" stroke-opacity="1.0" stroke-width="1.0"><path d="M 226.67,-180.3000 C 218.42,-189.6300 208.1400,-201.23 199.34,-211.1700 L 195.15,-215.9000"/></g><g fill="rgb(0%, 0%, 0%)" fill-opacity="0" stroke="rgb(33%, -22%, 26%)" stroke-opacity="1.0" stroke-width="1.0"><path d="M 170.21,-180.3000 C 171.85,-189.1200 173.87,-199.97 175.64,-209.5300 L 176.82,-215.9000"/></g><g fill="rgb(0%, 0%, 0%)" fill-opacity="0" stroke="rgb(33%, -22%, 26%)" stroke-opacity="1.0" stroke-width="1.0"><path d="M 110.74,-180.3000 C 123.2400,-189.81 138.84,-201.6800 152.07,-211.7500 L 157.2,-215.65"/></g><g fill="rgb(0%, 0%, 0%)" fill-opacity="0" stroke="rgb(33%, -22%, 26%)" stroke-opacity="1.0" stroke-width="1.0"><path d="M 192.3600,-252.3000 C 198.9,-261.46 207.0,-272.81 214.02,-282.62 L 217.78,-287.9"/></g><g fill="rgb(0%, 0%, 0%)" fill-opacity="0" stroke="rgb(33%, -22%, 26%)" stroke-opacity="1.0" stroke-width="1.0"><path d="M 162.7,-252.3000 C 153.29,-261.7100 141.56,-273.44 131.56,-283.4400 L 127.1,-287.9"/></g><g fill="rgb(0%, 0%, 0%)" fill-opacity="0" stroke="rgb(33%, -22%, 26%)" stroke-opacity="1.0" stroke-width="1.0"><path d="M 76.124,-252.3000 C 82.0090,-261.46 89.304,-272.81 95.6150,-282.62 L 99.004,-287.9"/></g><g fill="rgb(0%, 0%, 0%)" fill-opacity="0" stroke="rgb(33%, -22%, 26%)" stroke-opacity="1.0" stroke-width="1.0"><path d="M 181.36,-36.303 C 176.31,-45.3740 170.05,-56.5960 164.62,-66.35 L 161.53,-71.896"/></g><g fill="rgb(0%, 0%, 0%)" fill-opacity="0" stroke="rgb(33%, -22%, 26%)" stroke-opacity="1.0" stroke-width="1.0"><path d="M 124.56,-96.119 C 98.982,-102.5 62.272,-116.1700 45.0,-144.0 C 32.513,-164.12 41.437,-191.1 51.02,-210.0600 L 53.992,-215.6700"/></g><g fill="rgb(0%, 0%, 0%)" fill-opacity="0" stroke="rgb(33%, -22%, 26%)" stroke-opacity="1.0" stroke-width="1.0"><path d="M 179.35,-101.76 C 205.58,-112.2 246.22,-128.66 281.0,-144.0 C 281.87,-144.38 282.75,-144.78 283.64,-145.17 L 289.5500,-147.86"/></g><g fill="rgb(0%, 0%, 0%)" fill-opacity="0" stroke="rgb(33%, -22%, 26%)" stroke-opacity="1.0" stroke-width="1.0"><path d="M 338.83,-108.3 C 335.11,-117.29 330.51,-128.39 326.5,-138.08 L 324.09,-143.9"/></g><g fill="rgb(0%, 0%, 0%)" fill-opacity="0" stroke="rgb(33%, -22%, 26%)" stroke-opacity="1.0" stroke-width="1.0"><path d="M 254.03,-36.4830 C 232.89,-47.366 205.83,-61.292 184.89,-72.069 L 179.16,-75.02"/></g><g fill="rgb(0%, 0%, 0%)" fill-opacity="0" stroke="rgb(33%, -22%, 26%)" stroke-opacity="1.0" stroke-width="1.0"><path d="M 291.56,-36.4120 C 296.76,-61.887 306.46,-109.37 312.26,-137.79 L 313.51,-143.89"/></g><g fill="rgb(0%, 0%, 0%)" fill-opacity="0" stroke="rgb(33%, -22%, 26%)" stroke-opacity="1.0" stroke-width="1.0"><path d="M 122.6400,-36.303 C 127.6900,-45.3740 133.95,-56.5960 139.38,-66.35 L 142.47,-71.896"/></g><g fill="rgb(0%, 0%, 0%)" fill-opacity="0" stroke="rgb(33%, -22%, 26%)" stroke-opacity="1.0" stroke-width="1.0"><path d="M 289.61,-177.0 C 269.5900,-187.22 242.1500,-201.2400 219.7400,-212.7 L 214.1500,-215.55"/></g><g fill="rgb(0%, 0%, 0%)" fill-opacity="0" stroke="rgb(33%, -22%, 26%)" stroke-opacity="1.0" stroke-width="1.0"><path d="M 313.79,-180.3000 C 312.15,-189.1200 310.13,-199.97 308.36,-209.5300 L 307.18,-215.9000"/></g><g fill="rgb(0%, 0%, 0%)" fill-opacity="0" stroke="rgb(33%, -22%, 26%)" stroke-opacity="1.0" stroke-width="1.0"><path d="M 285.71,-252.3000 C 275.84,-261.6400 263.55,-273.26 253.03,-283.21 L 248.34,-287.65"/></g><g fill="rgb(0%, 0%, 0%)" fill-opacity="0" stroke="rgb(33%, -22%, 26%)" stroke-opacity="1.0" stroke-width="1.0"><path d="M 63.4720,-36.4830 C 80.423,-46.539 101.75,-59.193 119.2300,-69.561 L 124.5200,-72.699"/></g></g><g class="shapes"><g fill="rgb(2%, 29%, 48%)" fill-opacity="0.1" stroke="rgb(33%, -22%, 26%)" stroke-opacity="1.0" stroke-width="1.0"><rect height="36.0" width="58.9997" x="212.5002" y="-180.0"/></g><g fill="rgb(2%, 29%, 48%)" fill-opacity="0.1" stroke="rgb(33%, -22%, 26%)" stroke-opacity="1.0" stroke-width="1.0"><rect height="36.0" width="64.0001" x="198.0000" y="-324.0"/></g><g fill="rgb(2%, 29%, 48%)" fill-opacity="0.1" stroke="rgb(33%, -22%, 26%)" stroke-opacity="1.0" stroke-width="1.0"><rect height="36.0" width="54.0" x="140.0" y="-180.0"/></g><g fill="rgb(2%, 29%, 48%)" fill-opacity="0.1" stroke="rgb(33%, -22%, 26%)" stroke-opacity="1.0" stroke-width="1.0"><rect height="36.0" width="67.9997" x="54.0002" y="-180.0"/></g><g fill="rgb(2%, 29%, 48%)" fill-opacity="0.1" stroke="rgb(33%, -22%, 26%)" stroke-opacity="1.0" stroke-width="1.0"><rect height="36.0" width="81.0" x="139.5" y="-252.0"/></g><g fill="rgb(2%, 29%, 48%)" fill-opacity="0.1" stroke="rgb(33%, -22%, 26%)" stroke-opacity="1.0" stroke-width="1.0"><rect height="36.0" width="61.9999" x="34.0000" y="-252.0"/></g><g fill="rgb(2%, 29%, 48%)" fill-opacity="0.1" stroke="rgb(33%, -22%, 26%)" stroke-opacity="1.0" stroke-width="1.0"><rect height="36.0" width="66.0002" x="157.9999" y="-36.0"/></g><g fill="rgb(2%, 29%, 48%)" fill-opacity="0.1" stroke="rgb(33%, -22%, 26%)" stroke-opacity="1.0" stroke-width="1.0"><rect height="36.0" width="54.0" x="125.0" y="-108.0"/></g><g fill="rgb(2%, 29%, 48%)" fill-opacity="0.1" stroke="rgb(33%, -22%, 26%)" stroke-opacity="1.0" stroke-width="1.0"><rect height="36.0" width="58.9997" x="316.5002" y="-108.0"/></g><g fill="rgb(2%, 29%, 48%)" fill-opacity="0.1" stroke="rgb(33%, -22%, 26%)" stroke-opacity="1.0" stroke-width="1.0"><rect height="36.0" width="94.0032" x="62.9984" y="-324.0"/></g><g fill="rgb(2%, 29%, 48%)" fill-opacity="0.1" stroke="rgb(33%, -22%, 26%)" stroke-opacity="1.0" stroke-width="1.0"><rect height="36.0" width="92.0016" x="241.9992" y="-36.0"/></g><g fill="rgb(2%, 29%, 48%)" fill-opacity="0.1" stroke="rgb(33%, -22%, 26%)" stroke-opacity="1.0" stroke-width="1.0"><rect height="36.0" width="54.0" x="86.0" y="-36.0"/></g><g fill="rgb(2%, 29%, 48%)" fill-opacity="0.1" stroke="rgb(33%, -22%, 26%)" stroke-opacity="1.0" stroke-width="1.0"><rect height="36.0" width="54.0" x="290.0" y="-180.0"/></g><g fill="rgb(2%, 29%, 48%)" fill-opacity="0.1" stroke="rgb(33%, -22%, 26%)" stroke-opacity="1.0" stroke-width="1.0"><rect height="36.0" width="77.9976" x="265.0012" y="-252.0"/></g><g fill="rgb(2%, 29%, 48%)" fill-opacity="0.1" stroke="rgb(33%, -22%, 26%)" stroke-opacity="1.0" stroke-width="1.0"><rect height="36.0" width="67.9997" x="0.0002" y="-36.0"/></g></g><g class="labels"><g fill="rgb(33%, -22%, 26%)" fill-opacity="1.0" font-size="14.0" stroke="none" stroke-width="0.0" text-anchor="middle"><text x="242.0" y="-158.3"><a href="https://hackage.haskell.org/package/numhask/docs/NumHask-Algebra-Action.html#t:AdditiveAction">Actions</a></text><text x="230.0" y="-302.3"><a href="https://hackage.haskell.org/package/numhask/docs/NumHask-Algebra-Additive.html#t:Additive">Additive</a></text><text x="167.0" y="-158.3"><a href="https://hackage.haskell.org/package/numhask/docs/NumHask-Algebra-Metric.html#t:Basis">Basis</a></text><text x="88.0" y="-158.3"><a href="https://hackage.haskell.org/package/numhask/docs/NumHask-Algebra-Metric.html#t:Direction">Direction</a></text><text x="180.0" y="-230.3"><a href="https://hackage.haskell.org/package/numhask/docs/NumHask-Algebra-Distributive.html#t:Distributive">Distributive</a></text><text x="65.0" y="-230.3"><a href="https://hackage.haskell.org/package/numhask/docs/NumHask-Algebra-Multiplicative.html#t:Divisive">Divisive</a></text><text x="191.0" y="-14.3"><a href="https://hackage.haskell.org/package/numhask/docs/NumHask-Algebra-Field.html#t:ExpField">ExpField</a></text><text x="152.0" y="-86.3"><a href="https://hackage.haskell.org/package/numhask/docs/NumHask-Algebra-Field.html#t:Field">Field</a></text><text x="346.0" y="-86.3"><a href="https://hackage.haskell.org/package/numhask/docs/NumHask-Data-Integral.html#t:Integral">Integral</a></text><text x="110.0" y="-302.3"><a href="https://hackage.haskell.org/package/numhask/docs/NumHask-Algebra-Multiplicative.html#t:Multiplicative">Multiplicative</a></text><text x="288.0" y="-14.3"><a href="https://hackage.haskell.org/package/numhask/docs/NumHask-Algebra-Field.html#t:QuotientField">QuotientField</a></text><text x="113.0" y="-14.3"><a href="https://hackage.haskell.org/package/numhask/docs/NumHask-Data-Rational.html#t:Ratio">Ratio</a></text><text x="317.0" y="-158.3"><a href="https://hackage.haskell.org/package/numhask/docs/NumHask-Algebra-Ring.html#t:Ring">Ring</a></text><text x="304.0" y="-230.3"><a href="https://hackage.haskell.org/package/numhask/docs/NumHask-Algebra-Additive.html#t:Subtractive">Subtractive</a></text><text x="34.0" y="-14.3"><a href="https://hackage.haskell.org/package/numhask/docs/NumHask-Algebra-Field.html#t:TrigField">TrigField</a></text></g></g></g><g class="hud"/></svg>
