<svg xmlns="http://www.w3.org/2000/svg" xmlns:xlink="http://www.w3.org/1999/xlink" width="1931" height="500" viewBox="-1.9314 -0.5000 3.8628 1.0"><style>svg {
  color-scheme: light dark;
}
{
  .canvas g, .title g, .axisbar g, .ticktext g, .tickglyph g, .ticklines g, .legendContent g text {
    fill: rgb(5%, 5%, 5%);
  }
  .ticklines g, .tickglyph g, .legendBorder g {
    stroke: rgb(5%, 5%, 5%);
  }
  .legendBorder g {
    fill: rgb(94%, 94%, 94%);
  }
}
@media (prefers-color-scheme:dark) {
  .canvas g, .title g, .axisbar g, .ticktext g, .tickglyph g, .ticklines g, .legendContent g text {
    fill: rgb(94%, 94%, 94%);
  }
  .ticklines g, .tickglyph g, .legendBorder g {
    stroke: rgb(94%, 94%, 94%);
  }
  .legendBorder g {
    fill: rgb(5%, 5%, 5%);
  }
}
svg { font-family: system-ui,-apple-system,"Segoe UI",Roboto,"Helvetica Neue",Arial,"Noto Sans","Liberation Sans",sans-serif,"Apple Color Emoji","Segoe UI Emoji","Segoe UI Symbol","Noto Color Emoji";
}

ticktext { font-family: SFMono-Regular,Menlo,Monaco,Consolas,"Liberation Mono","Courier New",monospace;
}

</style><g class="chart"><g class="edges"><g stroke-width="0.0031" stroke="rgb(40%, 40%, 40%)" stroke-opacity="0.8" fill="rgb(0%, 0%, 0%)" fill-opacity="0"><path d="M 0.4258,-0.0563 C 0.3930,-0.0853 0.3522,-0.1214 0.3175,-0.1522 L 0.3030,-0.1651"/></g><g stroke-width="0.0031" stroke="rgb(40%, 40%, 40%)" stroke-opacity="0.8" fill="rgb(0%, 0%, 0%)" fill-opacity="0"><path d="M 0.2428,-0.0563 C 0.2428,-0.0834 0.2428,-0.1168 0.2428,-0.1462 L 0.2428,-0.1658"/></g><g stroke-width="0.0031" stroke="rgb(40%, 40%, 40%)" stroke-opacity="0.8" fill="rgb(0%, 0%, 0%)" fill-opacity="0"><path d="M 0.2793,-0.2778 C 0.2986,-0.3060 0.3225,-0.3410 0.3433,-0.3711 L 0.3544,-0.3874"/></g><g stroke-width="0.0031" stroke="rgb(40%, 40%, 40%)" stroke-opacity="0.8" fill="rgb(0%, 0%, 0%)" fill-opacity="0"><path d="M 0.1804,-0.2778 C 0.1464,-0.3069 0.1041,-0.3430 0.0680,-0.3738 L 0.0530,-0.3866"/></g><g stroke-width="0.0031" stroke="rgb(40%, 40%, 40%)" stroke-opacity="0.8" fill="rgb(0%, 0%, 0%)" fill-opacity="0"><path d="M -0.1995,-0.2778 C -0.1655,-0.3069 -0.1232,-0.3430 -0.0871,-0.3738 L -0.0721,-0.3866"/></g><g stroke-width="0.0031" stroke="rgb(40%, 40%, 40%)" stroke-opacity="0.8" fill="rgb(0%, 0%, 0%)" fill-opacity="0"><path d="M -0.2781,0.3868 C -0.3104,0.3578 -0.3507,0.3216 -0.3850,0.2908 L -0.3993,0.2780"/></g><g stroke-width="0.0031" stroke="rgb(40%, 40%, 40%)" stroke-opacity="0.8" fill="rgb(0%, 0%, 0%)" fill-opacity="0"><path d="M -0.4552,0.1655 C -0.4496,0.1084 -0.4355,0.0162 -0.4003,-0.0554 C -0.3828,-0.0909 -0.3559,-0.1251 -0.3305,-0.1529 L -0.3181,-0.1661"/></g><g stroke-width="0.0031" stroke="rgb(40%, 40%, 40%)" stroke-opacity="0.8" fill="rgb(0%, 0%, 0%)" fill-opacity="0"><path d="M -0.3752,0.1756 C -0.3662,0.1720 -0.3570,0.1687 -0.3480,0.1662 C 0.0584,0.0498 0.1902,0.1718 0.5966,0.0554 C 0.5994,0.0546 0.6022,0.0537 0.6051,0.0528 L 0.6238,0.0460"/></g><g stroke-width="0.0031" stroke="rgb(40%, 40%, 40%)" stroke-opacity="0.8" fill="rgb(0%, 0%, 0%)" fill-opacity="0"><path d="M 0.0551,-0.0563 C 0.0887,-0.0853 0.1305,-0.1214 0.1662,-0.1522 L 0.1810,-0.1651"/></g><g stroke-width="0.0031" stroke="rgb(40%, 40%, 40%)" stroke-opacity="0.8" fill="rgb(0%, 0%, 0%)" fill-opacity="0"><path d="M -0.1993,0.1652 C -0.2100,0.1376 -0.2231,0.1034 -0.2346,0.0736 L -0.2415,0.0557"/></g><g stroke-width="0.0031" stroke="rgb(40%, 40%, 40%)" stroke-opacity="0.8" fill="rgb(0%, 0%, 0%)" fill-opacity="0"><path d="M -0.4588,0.3868 C -0.4588,0.3596 -0.4588,0.3263 -0.4588,0.2968 L -0.4588,0.2772"/></g><g stroke-width="0.0031" stroke="rgb(40%, 40%, 40%)" stroke-opacity="0.8" fill="rgb(0%, 0%, 0%)" fill-opacity="0"><path d="M 0.6240,-0.0426 C 0.6147,-0.0469 0.6055,-0.0513 0.5966,-0.0554 C 0.5246,-0.0890 0.4442,-0.1261 0.3782,-0.1564 L 0.3600,-0.1647"/></g><g stroke-width="0.0031" stroke="rgb(40%, 40%, 40%)" stroke-opacity="0.8" fill="rgb(0%, 0%, 0%)" fill-opacity="0"><path d="M 0.6869,-0.0563 C 0.6762,-0.0840 0.6630,-0.1181 0.6515,-0.1479 L 0.6446,-0.1658"/></g><g stroke-width="0.0031" stroke="rgb(40%, 40%, 40%)" stroke-opacity="0.8" fill="rgb(0%, 0%, 0%)" fill-opacity="0"><path d="M -0.1498,-0.0509 C -0.0762,-0.0823 0.0210,-0.1238 0.1002,-0.1576 L 0.1178,-0.1651"/></g><g stroke-width="0.0031" stroke="rgb(40%, 40%, 40%)" stroke-opacity="0.8" fill="rgb(0%, 0%, 0%)" fill-opacity="0"><path d="M -0.2618,-0.0563 C -0.2618,-0.0834 -0.2618,-0.1168 -0.2618,-0.1462 L -0.2618,-0.1658"/></g><g stroke-width="0.0031" stroke="rgb(40%, 40%, 40%)" stroke-opacity="0.8" fill="rgb(0%, 0%, 0%)" fill-opacity="0"><path d="M 0.5665,-0.2778 C 0.5350,-0.3069 0.4958,-0.3430 0.4623,-0.3738 L 0.4484,-0.3866"/></g><g stroke-width="0.0031" stroke="rgb(40%, 40%, 40%)" stroke-opacity="0.8" fill="rgb(0%, 0%, 0%)" fill-opacity="0"><path d="M -0.6418,0.3868 C -0.6090,0.3578 -0.5682,0.3216 -0.5335,0.2908 L -0.5190,0.2780"/></g></g><g class="shapes"><g stroke-width="0.0031" stroke="rgb(40%, 40%, 40%)" stroke-opacity="0.8" fill="rgb(50%, 50%, 50%)" fill-opacity="0.2"><rect width="0.1946" height="0.1108" x="0.2932" y="-0.4985"/></g><g stroke-width="0.0031" stroke="rgb(40%, 40%, 40%)" stroke-opacity="0.8" fill="rgb(50%, 50%, 50%)" fill-opacity="0.2"><rect width="0.1662" height="0.1108" x="0.4028" y="-0.0554"/></g><g stroke-width="0.0031" stroke="rgb(40%, 40%, 40%)" stroke-opacity="0.8" fill="rgb(50%, 50%, 50%)" fill-opacity="0.2"><rect width="0.2062" height="0.1108" x="0.1397" y="-0.0554"/></g><g stroke-width="0.0031" stroke="rgb(40%, 40%, 40%)" stroke-opacity="0.8" fill="rgb(50%, 50%, 50%)" fill-opacity="0.2"><rect width="0.2477" height="0.1108" x="0.1189" y="-0.2769"/></g><g stroke-width="0.0031" stroke="rgb(40%, 40%, 40%)" stroke-opacity="0.8" fill="rgb(50%, 50%, 50%)" fill-opacity="0.2"><rect width="0.1900" height="0.1108" x="-0.3568" y="-0.2769"/></g><g stroke-width="0.0031" stroke="rgb(40%, 40%, 40%)" stroke-opacity="0.8" fill="rgb(50%, 50%, 50%)" fill-opacity="0.2"><rect width="0.2015" height="0.1108" x="-0.3195" y="0.3877"/></g><g stroke-width="0.0031" stroke="rgb(40%, 40%, 40%)" stroke-opacity="0.8" fill="rgb(50%, 50%, 50%)" fill-opacity="0.2"><rect width="0.1662" height="0.1108" x="-0.5418" y="0.1662"/></g><g stroke-width="0.0031" stroke="rgb(40%, 40%, 40%)" stroke-opacity="0.8" fill="rgb(50%, 50%, 50%)" fill-opacity="0.2"><rect width="0.1785" height="0.1108" x="-0.0957" y="-0.0554"/></g><g stroke-width="0.0031" stroke="rgb(40%, 40%, 40%)" stroke-opacity="0.8" fill="rgb(50%, 50%, 50%)" fill-opacity="0.2"><rect width="0.2869" height="0.1108" x="-0.1530" y="-0.4985"/></g><g stroke-width="0.0031" stroke="rgb(40%, 40%, 40%)" stroke-opacity="0.8" fill="rgb(50%, 50%, 50%)" fill-opacity="0.2"><rect width="0.2800" height="0.1108" x="-0.3188" y="0.1662"/></g><g stroke-width="0.0031" stroke="rgb(40%, 40%, 40%)" stroke-opacity="0.8" fill="rgb(50%, 50%, 50%)" fill-opacity="0.2"><rect width="0.1662" height="0.1108" x="-0.5418" y="0.3877"/></g><g stroke-width="0.0031" stroke="rgb(40%, 40%, 40%)" stroke-opacity="0.8" fill="rgb(50%, 50%, 50%)" fill-opacity="0.2"><rect width="0.1662" height="0.1108" x="0.6243" y="-0.0554"/></g><g stroke-width="0.0031" stroke="rgb(40%, 40%, 40%)" stroke-opacity="0.8" fill="rgb(50%, 50%, 50%)" fill-opacity="0.2"><rect width="0.2223" height="0.1108" x="-0.3730" y="-0.0554"/></g><g stroke-width="0.0031" stroke="rgb(40%, 40%, 40%)" stroke-opacity="0.8" fill="rgb(50%, 50%, 50%)" fill-opacity="0.2"><rect width="0.2385" height="0.1108" x="0.5051" y="-0.2769"/></g><g stroke-width="0.0031" stroke="rgb(40%, 40%, 40%)" stroke-opacity="0.8" fill="rgb(50%, 50%, 50%)" fill-opacity="0.2"><rect width="0.2062" height="0.1108" x="-0.8049" y="0.3877"/></g></g><g class="labels"><g stroke-width="0.0" stroke="none" fill="rgb(40%, 40%, 40%)" fill-opacity="0.8" font-size="0.0369" text-anchor="middle"><text x="0.3905" y="-0.4308"><a href="https://hackage.haskell.org/package/numhask/docs/NumHask-Algebra-Additive.html#t:Additive">Additive</a></text><text x="0.4858" y="0.0123"><a href="https://hackage.haskell.org/package/numhask/docs/NumHask-Algebra-Metric.html#t:Basis">Basis</a></text><text x="0.2428" y="0.0123"><a href="https://hackage.haskell.org/package/numhask/docs/NumHask-Algebra-Metric.html#t:Direction">Direction</a></text><text x="0.2428" y="-0.2092"><a href="https://hackage.haskell.org/package/numhask/docs/NumHask-Algebra-Ring.html#t:Distributive">Distributive</a></text><text x="-0.2618" y="-0.2092"><a href="https://hackage.haskell.org/package/numhask/docs/NumHask-Algebra-Multiplicative.html#t:Divisive">Divisive</a></text><text x="-0.2188" y="0.4554"><a href="https://hackage.haskell.org/package/numhask/docs/NumHask-Algebra-Field.html#t:ExpField">ExpField</a></text><text x="-0.4588" y="0.2338"><a href="https://hackage.haskell.org/package/numhask/docs/NumHask-Algebra-Field.html#t:Field">Field</a></text><text x="-0.0065" y="0.0123"><a href="https://hackage.haskell.org/package/numhask/docs/NumHask-Data-Integral.html#t:Integral">Integral</a></text><text x="-0.0095" y="-0.4308"><a href="https://hackage.haskell.org/package/numhask/docs/NumHask-Algebra-Multiplicative.html#t:Multiplicative">Multiplicative</a></text><text x="-0.1788" y="0.2338"><a href="https://hackage.haskell.org/package/numhask/docs/NumHask-Algebra-Field.html#t:QuotientField">QuotientField</a></text><text x="-0.4588" y="0.4554"><a href="https://hackage.haskell.org/package/numhask/docs/NumHask-Data-Rational.html#t:Ratio">Ratio</a></text><text x="0.7074" y="0.0123"><a href="https://hackage.haskell.org/package/numhask/docs/NumHask-Algebra-Ring.html#t:Ring">Ring</a></text><text x="-0.2618" y="0.0123"><a href="https://hackage.haskell.org/package/numhask/docs/NumHask-Algebra-Field.html#t:SemiField">SemiField</a></text><text x="0.6243" y="-0.2092"><a href="https://hackage.haskell.org/package/numhask/docs/NumHask-Algebra-Additive.html#t:Subtractive">Subtractive</a></text><text x="-0.7018" y="0.4554"><a href="https://hackage.haskell.org/package/numhask/docs/NumHask-Algebra-Field.html#t:TrigField">TrigField</a></text></g></g></g><g class="hud"></g></svg>