<svg xmlns="http://www.w3.org/2000/svg" height="300.0" viewBox="-0.6404171874749326 -0.5225 1.2808343749498652 1.045" width="367.7036483109661" xmlns:xlink="http://www.w3.org/1999/xlink"><g stroke-opacity="1.0" fill-opacity="0.0" stroke="#1f78b4" stroke-width="5.0e-3" fill="#000000"><path d="M -6.047754160458829e-2,-0.42939470171475513 C -0.1042122724824234,-0.39644071411593085 -0.1687077360305131,-0.34786054903542957 -0.21241037961305048,-0.3149386487319028"/></g><g stroke-opacity="1.0" fill-opacity="0.0" stroke="#1f78b4" stroke-width="5.0e-3" fill="#000000"><path d="M -1.2828066537520444e-2,-0.42939470171475513 C -1.2828066537520442e-2,-0.39644085635075477 -1.2828066537520442e-2,-0.3478604066125887 -1.2828066537520444e-2,-0.3149386487319028"/></g><g stroke-opacity="1.0" fill-opacity="0.0" stroke="#1f78b4" stroke-width="5.0e-3" fill="#000000"><path d="M -8.258561454816415e-2,-0.4389888592257931 C -0.16902841072057467,-0.4064198250381263 -0.31672590833321496,-0.35081266376011055 -0.41309007453861024,-0.314521511448814"/></g><g stroke-opacity="1.0" fill-opacity="0.0" stroke="#1f78b4" stroke-width="5.0e-3" fill="#000000"><path d="M 5.705783022751243e-2,-0.44056114590820417 C 0.14847414189059494,-0.4082167121717329 0.30926320814672476,-0.3513581559143266 0.413514408355497,-0.3144894239654994"/></g><g stroke-opacity="1.0" fill-opacity="0.0" stroke="#1f78b4" stroke-width="5.0e-3" fill="#000000"><path d="M 3.851143521824285e-2,-0.42939470171475513 C 8.567949779591714e-2,-0.39644070653867414 0.1551805577153326,-0.34786055662270243 0.20231653300772556,-0.3149386487319028"/></g><g stroke-opacity="1.0" fill-opacity="0.0" stroke="#1f78b4" stroke-width="5.0e-3" fill="#000000"><path d="M -0.20608920345937215,-0.24328729849060482 C -0.15664294869682727,-0.21033329876550366 -8.377273747894966e-2,-0.16175315795358514 -3.439065727494095e-2,-0.12883124550775216"/></g><g stroke-opacity="1.0" fill-opacity="0.0" stroke="#1f78b4" stroke-width="5.0e-3" fill="#000000"><path d="M -0.2598994187371317,-0.24328729849060482 C -0.2598994187371317,-0.21033345312660434 -0.2598994187371317,-0.16175300338843807 -0.2598994187371317,-0.12883124550775216"/></g><g stroke-opacity="1.0" fill-opacity="0.0" stroke="#1f78b4" stroke-width="5.0e-3" fill="#000000"><path d="M -6.635239138231497e-3,-0.24328729849060482 C -9.558441067998493e-4,-0.21033344669033027 7.418986817708607e-3,-0.1617530098332201 1.309838184914025e-2,-0.12883124550775216"/></g><g stroke-opacity="1.0" fill-opacity="0.0" stroke="#1f78b4" stroke-width="5.0e-3" fill="#000000"><path d="M -6.047754160458829e-2,-0.24328729849060482 C -0.10421227248242335,-0.2103333108917804 -0.16870773603051312,-0.16175314581127895 -0.21241037961305048,-0.12883124550775216"/></g><g stroke-opacity="1.0" fill-opacity="0.0" stroke="#1f78b4" stroke-width="5.0e-3" fill="#000000"><path d="M -0.431694226487355,-0.24383278570695144 C -0.4106482538609334,-0.23471991087969915 -0.38756791124072754,-0.22544670218063123 -0.3657871411083937,-0.21819488653865904"/></g><g stroke-opacity="1.0" fill-opacity="0.0" stroke="#1f78b4" stroke-width="5.0e-3" fill="#000000"><path d="M -0.3657871411083937,-0.21819488653865904 C -0.2503053582580261,-0.17965787506524405 -0.21359759600037015,-0.1963753087507674 -9.946347575037107e-2,-0.1540199199096417"/></g><g stroke-opacity="1.0" fill-opacity="0.0" stroke="#1f78b4" stroke-width="5.0e-3" fill="#000000"><path d="M -9.946347575037107e-2,-0.1540199199096417 C -8.078874636335551e-2,-0.14708898027632877 -6.124761821215004e-2,-0.13794411734842477 -4.3567593213783784e-2,-0.12883124550775216"/></g><g stroke-opacity="1.0" fill-opacity="0.0" stroke="#1f78b4" stroke-width="5.0e-3" fill="#000000"><path d="M -0.45933413074511403,-0.24328729849060482 C -0.41558335622942194,-0.21033331088308066 -0.3510943101635045,-0.1617531458199902 -0.3073884578612128,-0.12883124550775216"/></g><g stroke-opacity="1.0" fill-opacity="0.0" stroke="#1f78b4" stroke-width="5.0e-3" fill="#000000"><path d="M 0.4761486004975283,-0.24376861074032208 C 0.4289485767646049,-0.19932719998363735 0.3447193603590228,-0.12119457447979258 0.2695391931191783,-5.775746996611564e-2"/></g><g stroke-opacity="1.0" fill-opacity="0.0" stroke="#1f78b4" stroke-width="5.0e-3" fill="#000000"><path d="M 0.2695391931191783,-5.775746996611564e-2 C 0.2215047574394345,-1.7230884100918453e-2 0.1646781445878525,2.682498232777851e-2 0.1252431059968857,5.6826932949995024e-2"/></g><g stroke-opacity="1.0" fill-opacity="0.0" stroke="#1f78b4" stroke-width="5.0e-3" fill="#000000"><path d="M 0.49164671259004933,-0.24309477359071763 C 0.4461476225473212,-0.1690685890042664 0.335317812962089,3.4331644208081755e-3 0.21819969136341477,0.1283499332580348"/></g><g stroke-opacity="1.0" fill-opacity="0.0" stroke="#1f78b4" stroke-width="5.0e-3" fill="#000000"><path d="M 0.21819969136341477,0.1283499332580348 C 0.17866837072844163,0.17051296284228332 0.1290934527822845,0.21431216219277163 9.427896900044086e-2,0.243794280726974"/></g><g stroke-opacity="1.0" fill-opacity="0.0" stroke="#1f78b4" stroke-width="5.0e-3" fill="#000000"><path d="M 0.2430672625263628,-0.24306268610740311 C 0.22747314565277432,-0.19493136162835628 0.19381345088694718,-0.10977137124846574 0.1379817198700345,-5.775746996611564e-2"/></g><g stroke-opacity="1.0" fill-opacity="0.0" stroke="#1f78b4" stroke-width="5.0e-3" fill="#000000"><path d="M 0.1379817198700345,-5.775746996611564e-2 C 7.364700809008454e-2,2.181954846819741e-3 -1.8282972498061725e-2,4.068665875808521e-2 -9.128124265804638e-2,6.378991682924323e-2"/></g><g stroke-opacity="1.0" fill-opacity="0.0" stroke="#1f78b4" stroke-width="5.0e-3" fill="#000000"><path d="M 3.0393376503112912e-2,-5.7179895266454395e-2 C 4.062912662605858e-2,-2.4226030315512348e-2 5.571023161485912e-2,2.435438022287904e-2 6.591389428038175e-2,5.7276157716398046e-2"/></g><g stroke-opacity="1.0" fill-opacity="0.0" stroke="#1f78b4" stroke-width="5.0e-3" fill="#000000"><path d="M -2.4668239129943426e-2,-5.7179895266454395e-2 C -6.500172595333562e-2,-2.422591619589281e-2 -0.12445950502916137,2.4354265952407403e-2 -0.16476090454598263,5.7276157716398046e-2"/></g><g stroke-opacity="1.0" fill-opacity="0.0" stroke="#1f78b4" stroke-width="5.0e-3" fill="#000000"><path d="M 3.1227643406643968e-2,0.12892750795769603 C -1.0806465368534225e-2,0.16188149143776345 -7.279913042548125e-2,0.21046166477949113 -0.11480115189990536,0.24338676968887984"/></g><g stroke-opacity="1.0" fill-opacity="0.0" stroke="#1f78b4" stroke-width="5.0e-3" fill="#000000"><path d="M -0.2965750753039052,-5.621727076701921e-2 C -0.3377751347716835,-1.0267958341536827e-2 -0.39385117665694613,6.943728773479194e-2 -0.3529522656694528,0.1283499332580348"/></g><g stroke-opacity="1.0" fill-opacity="0.0" stroke="#1f78b4" stroke-width="5.0e-3" fill="#000000"><path d="M -0.3529522656694528,0.1283499332580348 C -0.3342456040368002,0.1552716076656281 -0.15218267310823408,0.21585229388225355 -3.885077648997315e-2,0.25150811171578197"/></g><g stroke-opacity="1.0" fill-opacity="0.0" stroke="#1f78b4" stroke-width="5.0e-3" fill="#000000"><path d="M -0.25001656464914723,-5.7179895266454395e-2 C -0.2409038600535761,-2.4226034135641877e-2 -0.22752338820245127,2.435438404805831e-2 -0.21844277106935284,5.7276157716398046e-2"/></g><g stroke-opacity="1.0" fill-opacity="0.0" stroke="#1f78b4" stroke-width="5.0e-3" fill="#000000"><path d="M 3.0938858709267714e-2,0.31504453742684063 C 1.2167949102177944e-2,0.3479984373325865 -1.5459311947474708e-2,0.39657556915961234 -3.419813414335693e-2,0.42949417291303005"/></g><g stroke-opacity="1.0" fill-opacity="0.0" stroke="#1f78b4" stroke-width="5.0e-3" fill="#000000"><path d="M -0.1992867194767337,0.12892750795769603 C -0.19075158131146447,0.1618813673133342 -0.17820538256664667,0.21046178905158014 -0.1696702444013775,0.24338676968887984"/></g><g stroke-opacity="1.0" fill-opacity="0.0" stroke="#1f78b4" stroke-width="5.0e-3" fill="#000000"><path d="M -0.14002168213742416,0.31504453742684063 C -0.1212507725303344,0.3479984373325865 -9.362351148068174e-2,0.39657556915961234 -7.488468928479952e-2,0.42949417291303005"/></g><g stroke-opacity="0.8" fill-opacity="0.1" stroke="#1f78b4" stroke-width="5.0e-3" fill="#a6cee3"><rect height="6.946298387924854e-2" width="0.13828100734598225" x="-8.196857021051152e-2" y="-0.5"/></g><g stroke-opacity="0.8" fill-opacity="0.1" stroke="#1f78b4" stroke-width="5.0e-3" fill="#a6cee3"><rect height="6.946298387924854e-2" width="0.15436154041617167" x="-0.3370801889452176" y="-0.3138925967758498"/></g><g stroke-opacity="0.8" fill-opacity="0.1" stroke="#1f78b4" stroke-width="5.0e-3" fill="#a6cee3"><rect height="6.946298387924854e-2" width="0.2218928330763792" x="-0.12377448307571004" y="-0.3138925967758498"/></g><g stroke-opacity="0.8" fill-opacity="0.1" stroke="#1f78b4" stroke-width="5.0e-3" fill="#a6cee3"><rect height="6.946298387924854e-2" width="0.2218928330763793" x="-0.6179171874749326" y="-0.3138925967758498"/></g><g stroke-opacity="0.8" fill-opacity="0.1" stroke="#1f78b4" stroke-width="5.0e-3" fill="#a6cee3"><rect height="6.946298387924854e-2" width="0.20903072203175688" x="0.40888646544317575" y="-0.3138925967758498"/></g><g stroke-opacity="0.8" fill-opacity="0.1" stroke="#1f78b4" stroke-width="5.0e-3" fill="#a6cee3"><rect height="6.946298387924854e-2" width="0.19295018896156768" x="0.15702050433971848" y="-0.3138925967758498"/></g><g stroke-opacity="0.8" fill-opacity="0.1" stroke="#1f78b4" stroke-width="5.0e-3" fill="#a6cee3"><rect height="6.946298387924843e-2" width="0.18008807791694537" x="-7.078491689864097e-2" y="-0.12778519355169937"/></g><g stroke-opacity="0.8" fill-opacity="0.1" stroke="#1f78b4" stroke-width="5.0e-3" fill="#a6cee3"><rect height="6.946298387924854e-2" width="0.22189283307637908" x="-3.3930355003124135e-2" y="5.8322209672450886e-2"/></g><g stroke-opacity="0.8" fill-opacity="0.1" stroke="#1f78b4" stroke-width="5.0e-3" fill="#a6cee3"><rect height="6.946298387924843e-2" width="0.2637022190588715" x="-0.3917505282665674" y="-0.12778519355169937"/></g><g stroke-opacity="0.8" fill-opacity="0.1" stroke="#1f78b4" stroke-width="5.0e-3" fill="#a6cee3"><rect height="6.946298387924849e-2" width="0.18008807791694526" x="-3.8697728301288814e-2" y="0.24442961289660126"/></g><g stroke-opacity="0.8" fill-opacity="0.1" stroke="#1f78b4" stroke-width="5.0e-3" fill="#a6cee3"><rect height="6.946298387924854e-2" width="0.2347595749440599" x="-0.3259397044533983" y="5.8322209672450886e-2"/></g><g stroke-opacity="0.8" fill-opacity="0.1" stroke="#1f78b4" stroke-width="5.0e-3" fill="#a6cee3"><rect height="6.946298387924849e-2" width="0.12541889630135994" x="-0.22313858223602012" y="0.24442961289660126"/></g><g stroke-opacity="0.8" fill-opacity="0.1" stroke="#1f78b4" stroke-width="5.0e-3" fill="#a6cee3"><rect height="6.946298387924837e-2" width="0.13828100734598225" x="-0.1236819153870693" y="0.4305370161207516"/></g><g fill-opacity="1.0" font-size="4.0e-2" stroke="none" stroke-width="0.0" fill="#333333" text-anchor="middle"><text x="-1.2828066537520444e-2" y="-0.45885101139747386">Magma</text><text x="-0.2598994187371317" y="-0.2727436081733239">Unital</text><text x="-1.2828066537520444e-2" y="-0.2727436081733239">Associative</text><text x="-0.506970770936743" y="-0.2727436081733239">Commutative</text><text x="0.5134018264590542" y="-0.2727436081733239">Invertible</text><text x="0.253495598820502" y="-0.2727436081733239">Absorbing</text><text x="1.92591220598316e-2" y="-8.663620494917335e-2">Additive</text><text x="7.701606153506546e-2" y="9.947119827497697e-2">Subtractive</text><text x="-0.2598994187371317" y="-8.663620494917335e-2">Multiplicative</text><text x="5.134631065718387e-2" y="0.2855786014991273">Divisive</text><text x="-0.20855991698136833" y="9.947119827497697e-2">Distributive</text><text x="-0.1604291340853402" y="0.2855786014991273">Ring</text><text x="-5.4541411714078225e-2" y="0.47168600472327754">Field</text></g><g stroke-opacity="1.0" stroke="#e63305" stroke-width="5.0e-3" fill="none" stroke-linecap="round" stroke-dasharray="3.0e-2 1.0e-2"><polyline points="-0.5101794897964782,-0.1861074032241502
0.5166105453187894,-0.1861074032241502"/></g></svg>