<svg xmlns="http://www.w3.org/2000/svg" height="300.0" viewBox="-0.6392534367128863 -0.5225 1.2785068734257725 1.045" width="367.03546605524576" xmlns:xlink="http://www.w3.org/1999/xlink"><g stroke-opacity="1.0" fill-opacity="0.0" stroke="#1f78b4" stroke-width="5.0e-3" fill="#000000"><path d="M -0.0604,-0.429 C -0.1040,-0.396 -0.1684,-0.348 -0.2120,-0.315"/></g><g stroke-opacity="1.0" fill-opacity="0.0" stroke="#1f78b4" stroke-width="5.0e-3" fill="#000000"><path d="M -0.0128,-0.429 C -0.0128,-0.396 -0.0128,-0.348 -0.0128,-0.315"/></g><g stroke-opacity="1.0" fill-opacity="0.0" stroke="#1f78b4" stroke-width="5.0e-3" fill="#000000"><path d="M -0.0824,-0.439 C -0.1687,-0.406 -0.3161,-0.351 -0.4123,-0.315"/></g><g stroke-opacity="1.0" fill-opacity="0.0" stroke="#1f78b4" stroke-width="5.0e-3" fill="#000000"><path d="M 0.0570,-0.441 C 0.1482,-0.408 0.3087,-0.351 0.4127,-0.314"/></g><g stroke-opacity="1.0" fill-opacity="0.0" stroke="#1f78b4" stroke-width="5.0e-3" fill="#000000"><path d="M 0.0384,-0.429 C 0.0855,-0.396 0.1549,-0.348 0.2019,-0.315"/></g><g stroke-opacity="1.0" fill-opacity="0.0" stroke="#1f78b4" stroke-width="5.0e-3" fill="#000000"><path d="M -0.2057,-0.243 C -0.1563,-0.210 -0.0836,-0.162 -0.0343,-0.129"/></g><g stroke-opacity="1.0" fill-opacity="0.0" stroke="#1f78b4" stroke-width="5.0e-3" fill="#000000"><path d="M -0.2594,-0.243 C -0.2594,-0.210 -0.2594,-0.162 -0.2594,-0.129"/></g><g stroke-opacity="1.0" fill-opacity="0.0" stroke="#1f78b4" stroke-width="5.0e-3" fill="#000000"><path d="M -0.0066,-0.243 C -0.0010,-0.210 0.0074,-0.162 0.0131,-0.129"/></g><g stroke-opacity="1.0" fill-opacity="0.0" stroke="#1f78b4" stroke-width="5.0e-3" fill="#000000"><path d="M -0.0604,-0.243 C -0.1040,-0.210 -0.1684,-0.162 -0.2120,-0.129"/></g><g stroke-opacity="1.0" fill-opacity="0.0" stroke="#1f78b4" stroke-width="5.0e-3" fill="#000000"><path d="M -0.4309,-0.244 C -0.4099,-0.235 -0.3868,-0.225 -0.3651,-0.218"/></g><g stroke-opacity="1.0" fill-opacity="0.0" stroke="#1f78b4" stroke-width="5.0e-3" fill="#000000"><path d="M -0.3651,-0.218 C -0.2498,-0.180 -0.2132,-0.196 -0.0993,-0.154"/></g><g stroke-opacity="1.0" fill-opacity="0.0" stroke="#1f78b4" stroke-width="5.0e-3" fill="#000000"><path d="M -0.0993,-0.154 C -0.0806,-0.147 -0.0611,-0.138 -0.0435,-0.129"/></g><g stroke-opacity="1.0" fill-opacity="0.0" stroke="#1f78b4" stroke-width="5.0e-3" fill="#000000"><path d="M -0.4585,-0.243 C -0.4148,-0.210 -0.3504,-0.162 -0.3068,-0.129"/></g><g stroke-opacity="1.0" fill-opacity="0.0" stroke="#1f78b4" stroke-width="5.0e-3" fill="#000000"><path d="M 0.4753,-0.244 C 0.4281,-0.199 0.3441,-0.121 0.2690,-0.058"/></g><g stroke-opacity="1.0" fill-opacity="0.0" stroke="#1f78b4" stroke-width="5.0e-3" fill="#000000"><path d="M 0.2690,-0.058 C 0.2211,-0.017 0.1644,0.027 0.1250,0.057"/></g><g stroke-opacity="1.0" fill-opacity="0.0" stroke="#1f78b4" stroke-width="5.0e-3" fill="#000000"><path d="M 0.4907,-0.243 C 0.4453,-0.169 0.3347,0.003 0.2178,0.128"/></g><g stroke-opacity="1.0" fill-opacity="0.0" stroke="#1f78b4" stroke-width="5.0e-3" fill="#000000"><path d="M 0.2178,0.128 C 0.1783,0.171 0.1289,0.214 0.0941,0.244"/></g><g stroke-opacity="1.0" fill-opacity="0.0" stroke="#1f78b4" stroke-width="5.0e-3" fill="#000000"><path d="M 0.2426,-0.243 C 0.2270,-0.195 0.1934,-0.110 0.1377,-0.058"/></g><g stroke-opacity="1.0" fill-opacity="0.0" stroke="#1f78b4" stroke-width="5.0e-3" fill="#000000"><path d="M 0.1377,-0.058 C 0.0735,0.002 -0.0182,0.041 -0.0911,0.064"/></g><g stroke-opacity="1.0" fill-opacity="0.0" stroke="#1f78b4" stroke-width="5.0e-3" fill="#000000"><path d="M 0.0303,-0.057 C 0.0406,-0.024 0.0556,0.024 0.0658,0.057"/></g><g stroke-opacity="1.0" fill-opacity="0.0" stroke="#1f78b4" stroke-width="5.0e-3" fill="#000000"><path d="M -0.0246,-0.057 C -0.0649,-0.024 -0.1242,0.024 -0.1645,0.057"/></g><g stroke-opacity="1.0" fill-opacity="0.0" stroke="#1f78b4" stroke-width="5.0e-3" fill="#000000"><path d="M 0.0312,0.129 C -0.0108,0.162 -0.0727,0.210 -0.1146,0.243"/></g><g stroke-opacity="1.0" fill-opacity="0.0" stroke="#1f78b4" stroke-width="5.0e-3" fill="#000000"><path d="M -0.2960,-0.056 C -0.3371,-0.010 -0.3931,0.069 -0.3523,0.128"/></g><g stroke-opacity="1.0" fill-opacity="0.0" stroke="#1f78b4" stroke-width="5.0e-3" fill="#000000"><path d="M -0.3523,0.128 C -0.3336,0.155 -0.1519,0.216 -0.0388,0.252"/></g><g stroke-opacity="1.0" fill-opacity="0.0" stroke="#1f78b4" stroke-width="5.0e-3" fill="#000000"><path d="M -0.2495,-0.057 C -0.2405,-0.024 -0.2271,0.024 -0.2180,0.057"/></g><g stroke-opacity="1.0" fill-opacity="0.0" stroke="#1f78b4" stroke-width="5.0e-3" fill="#000000"><path d="M 0.0309,0.315 C 0.0121,0.348 -0.0154,0.397 -0.0341,0.429"/></g><g stroke-opacity="1.0" fill-opacity="0.0" stroke="#1f78b4" stroke-width="5.0e-3" fill="#000000"><path d="M -0.1989,0.129 C -0.1904,0.162 -0.1779,0.210 -0.1694,0.243"/></g><g stroke-opacity="1.0" fill-opacity="0.0" stroke="#1f78b4" stroke-width="5.0e-3" fill="#000000"><path d="M -0.1398,0.315 C -0.1210,0.348 -0.0934,0.397 -0.0747,0.429"/></g><g stroke-opacity="0.8" fill-opacity="0.1" stroke="#1f78b4" stroke-width="5.0e-3" fill="#a6cee3"><rect height="6.946298387924843e-2" width="0.13802057661037992" x="-8.181419517777266e-2" y="-0.5"/></g><g stroke-opacity="0.8" fill-opacity="0.1" stroke="#1f78b4" stroke-width="5.0e-3" fill="#a6cee3"><rect height="6.946298387924854e-2" width="0.15407082450159398" x="-0.33644535092046735" y="-0.3138925967758498"/></g><g stroke-opacity="0.8" fill-opacity="0.1" stroke="#1f78b4" stroke-width="5.0e-3" fill="#a6cee3"><rect height="6.946298387924854e-2" width="0.22147493249225647" x="-0.12354137311871094" y="-0.3138925967758498"/></g><g stroke-opacity="0.8" fill-opacity="0.1" stroke="#1f78b4" stroke-width="5.0e-3" fill="#a6cee3"><rect height="6.946298387924854e-2" width="0.22147493249225653" x="-0.6167534367128863" y="-0.3138925967758498"/></g><g stroke-opacity="0.8" fill-opacity="0.1" stroke="#1f78b4" stroke-width="5.0e-3" fill="#a6cee3"><rect height="6.946298387924854e-2" width="0.20863704523009718" x="0.4081163914827891" y="-0.3138925967758498"/></g><g stroke-opacity="0.8" fill-opacity="0.1" stroke="#1f78b4" stroke-width="5.0e-3" fill="#a6cee3"><rect height="6.946298387924854e-2" width="0.1925867973388833" x="0.1567247806808103" y="-0.3138925967758498"/></g><g stroke-opacity="0.8" fill-opacity="0.1" stroke="#1f78b4" stroke-width="5.0e-3" fill="#a6cee3"><rect height="6.946298387924843e-2" width="0.17974891007672433" x="-7.065160453469976e-2" y="-0.12778519355169937"/></g><g stroke-opacity="0.8" fill-opacity="0.1" stroke="#1f78b4" stroke-width="5.0e-3" fill="#a6cee3"><rect height="6.94629838792486e-2" width="0.22147493249225658" x="-3.386645246522468e-2" y="5.832220967245083e-2"/></g><g stroke-opacity="0.8" fill-opacity="0.1" stroke="#1f78b4" stroke-width="5.0e-3" fill="#a6cee3"><rect height="6.946298387924843e-2" width="0.26320557700941327" x="-0.39101272717437696" y="-0.12778519355169937"/></g><g stroke-opacity="0.8" fill-opacity="0.1" stroke="#1f78b4" stroke-width="5.0e-3" fill="#a6cee3"><rect height="6.946298387924843e-2" width="0.17974891007672422" x="-3.862484715845449e-2" y="0.24442961289660126"/></g><g stroke-opacity="0.8" fill-opacity="0.1" stroke="#1f78b4" stroke-width="5.0e-3" fill="#a6cee3"><rect height="6.94629838792486e-2" width="0.23431744185604025" x="-0.32532584779569823" y="5.832220967245083e-2"/></g><g stroke-opacity="0.8" fill-opacity="0.1" stroke="#1f78b4" stroke-width="5.0e-3" fill="#a6cee3"><rect height="6.946298387924843e-2" width="0.1251826893482209" x="-0.22271833547742087" y="0.24442961289660126"/></g><g stroke-opacity="0.8" fill-opacity="0.1" stroke="#1f78b4" stroke-width="5.0e-3" fill="#a6cee3"><rect height="6.946298387924843e-2" width="0.13802057661037997" x="-0.12344897976689145" y="0.43053701612075157"/></g><g fill-opacity="1.0" font-size="4.0e-2" stroke="none" stroke-width="0.0" fill="#1f78b4" text-anchor="middle"><text x="-1.2803906872582704e-2" y="-0.4588510113974741">Magma</text><text x="-0.2594099386696704" y="-0.27274360817332377">Unital</text><text x="-1.2803906872582704e-2" y="-0.27274360817332377">Associative</text><text x="-0.5060159704667582" y="-0.27274360817332377">Commutative</text><text x="0.5124349140978378" y="-0.27274360817332377">Invertible</text><text x="0.25301817935025206" y="-0.27274360817332377">Absorbing</text><text x="1.9222850503662348e-2" y="-8.663620494917346e-2">Additive</text><text x="7.687101378090355e-2" y="9.947119827497686e-2">Subtractive</text><text x="-0.2594099386696704" y="-8.663620494917346e-2">Multiplicative</text><text x="5.124960787990751e-2" y="0.2855786014991273">Divisive</text><text x="-0.2081671268676782" y="9.947119827497686e-2">Distributive</text><text x="-0.16012699080331044" y="0.2855786014991273">Ring</text><text x="-5.443869146170133e-2" y="0.47168600472327754">Field</text></g><g stroke-opacity="1.0" stroke="#e63305" stroke-width="5.0e-3" fill="none" stroke-linecap="round" stroke-dasharray="3.0e-2 1.0e-2"><polyline points="-0.5092186462043825,-0.18610740322415043
0.515637589835462,-0.18610740322415043"/></g></svg>
